<?xml version="1.0" encoding="UTF-8" standalone="no"?>
<!DOCTYPE svg PUBLIC "-//W3C//DTD SVG 1.1//EN"
 "http://www.w3.org/Graphics/SVG/1.1/DTD/svg11.dtd">
<!-- Generated by graphviz version 2.43.0 (0)
 -->
<!-- Title: setInitState Pages: 1 -->
<svg width="206pt" height="138pt"
 viewBox="0.00 0.00 206.00 138.00" xmlns="http://www.w3.org/2000/svg" xmlns:xlink="http://www.w3.org/1999/xlink">
<g id="graph0" class="graph" transform="scale(1 1) rotate(0) translate(4 134)">
<title>setInitState</title>
<!-- Node1 -->
<g id="node1" class="node">
<title>Node1</title>
<g id="a_node1"><a xlink:title="アナログ機能を無効化する関数">
<polygon fill="#999999" stroke="#666666" points="73,-74 0,-74 0,-55 73,-55 73,-74"/>
<text text-anchor="middle" x="36.5" y="-62" font-family="Helvetica,sans-Serif" font-size="10.00">setInitState</text>
</a>
</g>
</g>
<!-- Node2 -->
<g id="node2" class="node">
<title>Node2</title>
<g id="a_node2"><a xlink:href="PIC12F6XX_8c.html#a6933d56410a79bc99303c7f4f54521ca" target="_top" xlink:title="EEPROMからデータを読み込む関数">
<polygon fill="white" stroke="#666666" points="183,-130 124,-130 124,-111 183,-111 183,-130"/>
<text text-anchor="middle" x="153.5" y="-118" font-family="Helvetica,sans-Serif" font-size="10.00">eepRead</text>
</a>
</g>
</g>
<!-- Node1&#45;&gt;Node2 -->
<g id="edge1" class="edge">
<title>Node1&#45;&gt;Node2</title>
<path fill="none" stroke="#63b8ff" d="M54.31,-74.03C68.66,-82.01 89.93,-93.51 109,-102.5 112.13,-103.97 115.41,-105.45 118.7,-106.89"/>
<polygon fill="#63b8ff" stroke="#63b8ff" points="117.36,-110.12 127.93,-110.82 120.1,-103.68 117.36,-110.12"/>
</g>
<!-- Node3 -->
<g id="node3" class="node">
<title>Node3</title>
<g id="a_node3"><a xlink:href="PIC12F6XX_8c.html#a64719dac9a22c3c4752c799ffc69b25a" target="_top" xlink:title="EEPROMにデータを書き込む関数">
<polygon fill="white" stroke="#666666" points="184,-93 123,-93 123,-74 184,-74 184,-93"/>
<text text-anchor="middle" x="153.5" y="-81" font-family="Helvetica,sans-Serif" font-size="10.00">eepWrite</text>
</a>
</g>
</g>
<!-- Node1&#45;&gt;Node3 -->
<g id="edge2" class="edge">
<title>Node1&#45;&gt;Node3</title>
<path fill="none" stroke="#63b8ff" d="M73.26,-70.41C85.85,-72.49 100.07,-74.84 112.95,-76.97"/>
<polygon fill="#63b8ff" stroke="#63b8ff" points="112.51,-80.44 122.94,-78.62 113.65,-73.53 112.51,-80.44"/>
</g>
<!-- Node4 -->
<g id="node4" class="node">
<title>Node4</title>
<g id="a_node4"><a xlink:href="common_8c.html#ab1be8587a70ecef36ec9bc5afc406df8" target="_top" xlink:title="LEDを点滅させる関数">
<polygon fill="white" stroke="#666666" points="183,-56 124,-56 124,-37 183,-37 183,-56"/>
<text text-anchor="middle" x="153.5" y="-44" font-family="Helvetica,sans-Serif" font-size="10.00">flashLED</text>
</a>
</g>
</g>
<!-- Node1&#45;&gt;Node4 -->
<g id="edge3" class="edge">
<title>Node1&#45;&gt;Node4</title>
<path fill="none" stroke="#63b8ff" d="M73.26,-58.9C86.05,-56.9 100.54,-54.63 113.59,-52.59"/>
<polygon fill="#63b8ff" stroke="#63b8ff" points="114.35,-56.01 123.69,-51.01 113.27,-49.1 114.35,-56.01"/>
</g>
<!-- Node5 -->
<g id="node5" class="node">
<title>Node5</title>
<g id="a_node5"><a xlink:href="header_8h.html#a896a4f8d3daad77204547524b2c803bc" target="_top" xlink:title=" ">
<polygon fill="white" stroke="#666666" points="198,-19 109,-19 109,0 198,0 198,-19"/>
<text text-anchor="middle" x="153.5" y="-7" font-family="Helvetica,sans-Serif" font-size="10.00">waitChattering</text>
</a>
</g>
</g>
<!-- Node1&#45;&gt;Node5 -->
<g id="edge4" class="edge">
<title>Node1&#45;&gt;Node5</title>
<path fill="none" stroke="#63b8ff" d="M55.88,-54.9C70.24,-47.48 90.76,-37.07 109,-28.5 112.67,-26.78 116.54,-25.01 120.39,-23.29"/>
<polygon fill="#63b8ff" stroke="#63b8ff" points="122.08,-26.37 129.82,-19.13 119.26,-19.96 122.08,-26.37"/>
</g>
</g>
</svg>
