<?xml version="1.0" encoding="UTF-8" standalone="no"?>
<!DOCTYPE svg PUBLIC "-//W3C//DTD SVG 1.1//EN"
 "http://www.w3.org/Graphics/SVG/1.1/DTD/svg11.dtd">
<!-- Generated by graphviz version 2.43.0 (0)
 -->
<!-- Title: common.c Pages: 1 -->
<svg width="245pt" height="192pt"
 viewBox="0.00 0.00 244.50 192.00" xmlns="http://www.w3.org/2000/svg" xmlns:xlink="http://www.w3.org/1999/xlink">
<g id="graph0" class="graph" transform="scale(1 1) rotate(0) translate(4 188)">
<title>common.c</title>
<!-- Node1 -->
<g id="node1" class="node">
<title>Node1</title>
<g id="a_node1"><a xlink:title="PICマイコンによらず共通な関数を定義するファイル">
<polygon fill="#999999" stroke="#666666" points="183,-184 115,-184 115,-165 183,-165 183,-184"/>
<text text-anchor="middle" x="149" y="-172" font-family="Helvetica,sans-Serif" font-size="10.00">common.c</text>
</a>
</g>
</g>
<!-- Node2 -->
<g id="node2" class="node">
<title>Node2</title>
<g id="a_node2"><a xlink:href="header_8h.html" target="_top" xlink:title=" ">
<polygon fill="white" stroke="#666666" points="178.5,-129 119.5,-129 119.5,-110 178.5,-110 178.5,-129"/>
<text text-anchor="middle" x="149" y="-117" font-family="Helvetica,sans-Serif" font-size="10.00">header.h</text>
</a>
</g>
</g>
<!-- Node1&#45;&gt;Node2 -->
<g id="edge1" class="edge">
<title>Node1&#45;&gt;Node2</title>
<path fill="none" stroke="#63b8ff" d="M149,-164.75C149,-157.8 149,-147.85 149,-139.13"/>
<polygon fill="#63b8ff" stroke="#63b8ff" points="152.5,-139.09 149,-129.09 145.5,-139.09 152.5,-139.09"/>
</g>
<!-- Node3 -->
<g id="node3" class="node">
<title>Node3</title>
<g id="a_node3"><a xlink:title=" ">
<polygon fill="#e0e0e0" stroke="#999999" points="62,-19 0,-19 0,0 62,0 62,-19"/>
<text text-anchor="middle" x="31" y="-7" font-family="Helvetica,sans-Serif" font-size="10.00">stdbool.h</text>
</a>
</g>
</g>
<!-- Node2&#45;&gt;Node3 -->
<g id="edge2" class="edge">
<title>Node2&#45;&gt;Node3</title>
<path fill="none" stroke="#63b8ff" d="M119.45,-117.62C88.87,-114.94 42.48,-105.54 20,-74 10.58,-60.79 15.36,-42.16 21.28,-28.5"/>
<polygon fill="#63b8ff" stroke="#63b8ff" points="24.58,-29.72 25.81,-19.19 18.29,-26.65 24.58,-29.72"/>
</g>
<!-- Node4 -->
<g id="node4" class="node">
<title>Node4</title>
<g id="a_node4"><a xlink:title=" ">
<polygon fill="#e0e0e0" stroke="#999999" points="144.5,-19 91.5,-19 91.5,0 144.5,0 144.5,-19"/>
<text text-anchor="middle" x="118" y="-7" font-family="Helvetica,sans-Serif" font-size="10.00">stdint.h</text>
</a>
</g>
</g>
<!-- Node2&#45;&gt;Node4 -->
<g id="edge3" class="edge">
<title>Node2&#45;&gt;Node4</title>
<path fill="none" stroke="#63b8ff" d="M158.66,-109.82C171.09,-97.54 189.97,-74.43 180,-55 173.04,-41.44 159.81,-31.07 147.35,-23.78"/>
<polygon fill="#63b8ff" stroke="#63b8ff" points="148.98,-20.68 138.52,-19 145.65,-26.84 148.98,-20.68"/>
</g>
<!-- Node5 -->
<g id="node5" class="node">
<title>Node5</title>
<g id="a_node5"><a xlink:title=" ">
<polygon fill="#e0e0e0" stroke="#999999" points="236.5,-19 199.5,-19 199.5,0 236.5,0 236.5,-19"/>
<text text-anchor="middle" x="218" y="-7" font-family="Helvetica,sans-Serif" font-size="10.00">xc.h</text>
</a>
</g>
</g>
<!-- Node2&#45;&gt;Node5 -->
<g id="edge4" class="edge">
<title>Node2&#45;&gt;Node5</title>
<path fill="none" stroke="#63b8ff" d="M160.66,-109.78C170.94,-101.55 185.7,-88.36 195,-74 203.96,-60.16 210.02,-42.36 213.66,-29.13"/>
<polygon fill="#63b8ff" stroke="#63b8ff" points="217.09,-29.84 216.16,-19.28 210.31,-28.12 217.09,-29.84"/>
</g>
<!-- Node6 -->
<g id="node6" class="node">
<title>Node6</title>
<g id="a_node6"><a xlink:href="PIC12F6XX_8h.html" target="_top" xlink:title=" ">
<polygon fill="white" stroke="#666666" points="170.5,-74 29.5,-74 29.5,-55 170.5,-55 170.5,-74"/>
<text text-anchor="middle" x="100" y="-62" font-family="Helvetica,sans-Serif" font-size="10.00">./PIC12F6XX/PIC12F6XX.h</text>
</a>
</g>
</g>
<!-- Node2&#45;&gt;Node6 -->
<g id="edge5" class="edge">
<title>Node2&#45;&gt;Node6</title>
<path fill="none" stroke="#63b8ff" d="M140.91,-109.75C133.84,-102.11 123.41,-90.82 114.85,-81.56"/>
<polygon fill="#63b8ff" stroke="#63b8ff" points="117.3,-79.06 107.94,-74.09 112.16,-83.81 117.3,-79.06"/>
</g>
<!-- Node6&#45;&gt;Node3 -->
<g id="edge6" class="edge">
<title>Node6&#45;&gt;Node3</title>
<path fill="none" stroke="#63b8ff" d="M88.91,-54.98C78.51,-47 62.74,-34.88 50.28,-25.31"/>
<polygon fill="#63b8ff" stroke="#63b8ff" points="52.35,-22.49 42.29,-19.17 48.09,-28.04 52.35,-22.49"/>
</g>
<!-- Node6&#45;&gt;Node4 -->
<g id="edge7" class="edge">
<title>Node6&#45;&gt;Node4</title>
<path fill="none" stroke="#63b8ff" d="M102.97,-54.75C105.36,-47.72 108.79,-37.62 111.77,-28.84"/>
<polygon fill="#63b8ff" stroke="#63b8ff" points="115.18,-29.68 115.08,-19.09 108.55,-27.43 115.18,-29.68"/>
</g>
<!-- Node6&#45;&gt;Node5 -->
<g id="edge8" class="edge">
<title>Node6&#45;&gt;Node5</title>
<path fill="none" stroke="#63b8ff" d="M118.96,-54.98C138.25,-46.32 168.37,-32.79 190.33,-22.93"/>
<polygon fill="#63b8ff" stroke="#63b8ff" points="191.79,-26.11 199.48,-18.82 188.92,-19.72 191.79,-26.11"/>
</g>
</g>
</svg>
