<?xml version="1.0" encoding="UTF-8" standalone="no"?>
<!DOCTYPE svg PUBLIC "-//W3C//DTD SVG 1.1//EN"
 "http://www.w3.org/Graphics/SVG/1.1/DTD/svg11.dtd">
<!-- Generated by graphviz version 2.43.0 (0)
 -->
<!-- Title: bypass Pages: 1 -->
<svg width="314pt" height="101pt"
 viewBox="0.00 0.00 314.00 101.00" xmlns="http://www.w3.org/2000/svg" xmlns:xlink="http://www.w3.org/1999/xlink">
<g id="graph0" class="graph" transform="scale(1 1) rotate(0) translate(4 97)">
<title>bypass</title>
<!-- Node1 -->
<g id="node1" class="node">
<title>Node1</title>
<g id="a_node1"><a xlink:title="バイパスの挙動を定義する関数">
<polygon fill="#999999" stroke="#666666" points="51,-38 0,-38 0,-19 51,-19 51,-38"/>
<text text-anchor="middle" x="25.5" y="-26" font-family="Helvetica,sans-Serif" font-size="10.00">bypass</text>
</a>
</g>
</g>
<!-- Node2 -->
<g id="node2" class="node">
<title>Node2</title>
<g id="a_node2"><a xlink:href="common_8c.html#a7ee3eeaca131e64d4a618e155ed0c650" target="_top" xlink:title="モードスイッチをスキャンして、適宜モードを切り替える関数">
<polygon fill="white" stroke="#666666" points="167,-57 87,-57 87,-38 167,-38 167,-57"/>
<text text-anchor="middle" x="127" y="-45" font-family="Helvetica,sans-Serif" font-size="10.00">scanModeSw</text>
</a>
</g>
</g>
<!-- Node1&#45;&gt;Node2 -->
<g id="edge1" class="edge">
<title>Node1&#45;&gt;Node2</title>
<path fill="none" stroke="#63b8ff" d="M51.1,-33.2C58.96,-34.7 67.95,-36.42 76.92,-38.13"/>
<polygon fill="#63b8ff" stroke="#63b8ff" points="76.49,-41.61 86.97,-40.05 77.81,-34.73 76.49,-41.61"/>
</g>
<!-- Node4 -->
<g id="node4" class="node">
<title>Node4</title>
<g id="a_node4"><a xlink:href="header_8h.html#a81367fdb31f37ba7d2a30d0e09b28b35" target="_top" xlink:title=" ">
<polygon fill="white" stroke="#666666" points="306,-19 203,-19 203,0 306,0 306,-19"/>
<text text-anchor="middle" x="254.5" y="-7" font-family="Helvetica,sans-Serif" font-size="10.00">waitPhotoCoupler</text>
</a>
</g>
</g>
<!-- Node1&#45;&gt;Node4 -->
<g id="edge5" class="edge">
<title>Node1&#45;&gt;Node4</title>
<path fill="none" stroke="#63b8ff" d="M51.23,-26.43C84.88,-23.61 146.21,-18.48 192.55,-14.6"/>
<polygon fill="#63b8ff" stroke="#63b8ff" points="193.11,-18.07 202.78,-13.75 192.53,-11.09 193.11,-18.07"/>
</g>
<!-- Node3 -->
<g id="node3" class="node">
<title>Node3</title>
<g id="a_node3"><a xlink:href="header_8h.html#a896a4f8d3daad77204547524b2c803bc" target="_top" xlink:title=" ">
<polygon fill="white" stroke="#666666" points="299,-93 210,-93 210,-74 299,-74 299,-93"/>
<text text-anchor="middle" x="254.5" y="-81" font-family="Helvetica,sans-Serif" font-size="10.00">waitChattering</text>
</a>
</g>
</g>
<!-- Node2&#45;&gt;Node3 -->
<g id="edge2" class="edge">
<title>Node2&#45;&gt;Node3</title>
<path fill="none" stroke="#63b8ff" d="M161.3,-57.05C176.34,-61.37 194.29,-66.51 210.34,-71.12"/>
<polygon fill="#63b8ff" stroke="#63b8ff" points="209.46,-74.51 220.04,-73.9 211.39,-67.78 209.46,-74.51"/>
</g>
<!-- Node2&#45;&gt;Node4 -->
<g id="edge3" class="edge">
<title>Node2&#45;&gt;Node4</title>
<path fill="none" stroke="#63b8ff" d="M159.67,-37.91C175.57,-33.1 195.04,-27.2 212.11,-22.03"/>
<polygon fill="#63b8ff" stroke="#63b8ff" points="213.28,-25.33 221.84,-19.09 211.26,-18.63 213.28,-25.33"/>
</g>
<!-- Node5 -->
<g id="node5" class="node">
<title>Node5</title>
<g id="a_node5"><a xlink:href="header_8h.html#a4daaabbaa70e855fc1e74004ad507c2b" target="_top" xlink:title=" ">
<polygon fill="white" stroke="#666666" points="287,-56 222,-56 222,-37 287,-37 287,-56"/>
<text text-anchor="middle" x="254.5" y="-44" font-family="Helvetica,sans-Serif" font-size="10.00">waitRelay</text>
</a>
</g>
</g>
<!-- Node2&#45;&gt;Node5 -->
<g id="edge4" class="edge">
<title>Node2&#45;&gt;Node5</title>
<path fill="none" stroke="#63b8ff" d="M167.02,-47.19C181.15,-47.08 197.16,-46.95 211.53,-46.83"/>
<polygon fill="#63b8ff" stroke="#63b8ff" points="211.68,-50.33 221.65,-46.75 211.63,-43.33 211.68,-50.33"/>
</g>
</g>
</svg>
