<?xml version="1.0" encoding="UTF-8" standalone="no"?>
<!DOCTYPE svg PUBLIC "-//W3C//DTD SVG 1.1//EN"
 "http://www.w3.org/Graphics/SVG/1.1/DTD/svg11.dtd">
<!-- Generated by graphviz version 2.43.0 (0)
 -->
<!-- Title: scanModeSw Pages: 1 -->
<svg width="227pt" height="101pt"
 viewBox="0.00 0.00 227.00 101.00" xmlns="http://www.w3.org/2000/svg" xmlns:xlink="http://www.w3.org/1999/xlink">
<g id="graph0" class="graph" transform="scale(1 1) rotate(0) translate(4 97)">
<title>scanModeSw</title>
<!-- Node1 -->
<g id="node1" class="node">
<title>Node1</title>
<g id="a_node1"><a xlink:title="モードスイッチをスキャンして、適宜モードを切り替える関数">
<polygon fill="#999999" stroke="#666666" points="80,-56 0,-56 0,-37 80,-37 80,-56"/>
<text text-anchor="middle" x="40" y="-44" font-family="Helvetica,sans-Serif" font-size="10.00">scanModeSw</text>
</a>
</g>
</g>
<!-- Node2 -->
<g id="node2" class="node">
<title>Node2</title>
<g id="a_node2"><a xlink:href="header_8h.html#a896a4f8d3daad77204547524b2c803bc" target="_top" xlink:title=" ">
<polygon fill="white" stroke="#666666" points="212,-93 123,-93 123,-74 212,-74 212,-93"/>
<text text-anchor="middle" x="167.5" y="-81" font-family="Helvetica,sans-Serif" font-size="10.00">waitChattering</text>
</a>
</g>
</g>
<!-- Node1&#45;&gt;Node2 -->
<g id="edge1" class="edge">
<title>Node1&#45;&gt;Node2</title>
<path fill="none" stroke="#63b8ff" d="M73.32,-56.03C88.72,-60.57 107.34,-66.06 123.87,-70.93"/>
<polygon fill="#63b8ff" stroke="#63b8ff" points="123.27,-74.4 133.85,-73.88 125.25,-67.69 123.27,-74.4"/>
</g>
<!-- Node3 -->
<g id="node3" class="node">
<title>Node3</title>
<g id="a_node3"><a xlink:href="header_8h.html#a81367fdb31f37ba7d2a30d0e09b28b35" target="_top" xlink:title=" ">
<polygon fill="white" stroke="#666666" points="219,-56 116,-56 116,-37 219,-37 219,-56"/>
<text text-anchor="middle" x="167.5" y="-44" font-family="Helvetica,sans-Serif" font-size="10.00">waitPhotoCoupler</text>
</a>
</g>
</g>
<!-- Node1&#45;&gt;Node3 -->
<g id="edge2" class="edge">
<title>Node1&#45;&gt;Node3</title>
<path fill="none" stroke="#63b8ff" d="M80.02,-46.5C88.19,-46.5 96.99,-46.5 105.74,-46.5"/>
<polygon fill="#63b8ff" stroke="#63b8ff" points="105.95,-50 115.95,-46.5 105.95,-43 105.95,-50"/>
</g>
<!-- Node4 -->
<g id="node4" class="node">
<title>Node4</title>
<g id="a_node4"><a xlink:href="header_8h.html#a4daaabbaa70e855fc1e74004ad507c2b" target="_top" xlink:title=" ">
<polygon fill="white" stroke="#666666" points="200,-19 135,-19 135,0 200,0 200,-19"/>
<text text-anchor="middle" x="167.5" y="-7" font-family="Helvetica,sans-Serif" font-size="10.00">waitRelay</text>
</a>
</g>
</g>
<!-- Node1&#45;&gt;Node4 -->
<g id="edge3" class="edge">
<title>Node1&#45;&gt;Node4</title>
<path fill="none" stroke="#63b8ff" d="M73.32,-36.97C89.1,-32.32 108.28,-26.66 125.12,-21.7"/>
<polygon fill="#63b8ff" stroke="#63b8ff" points="126.12,-25.05 134.72,-18.87 124.14,-18.34 126.12,-25.05"/>
</g>
</g>
</svg>
