<?xml version="1.0" encoding="UTF-8" standalone="no"?>
<!DOCTYPE svg PUBLIC "-//W3C//DTD SVG 1.1//EN"
 "http://www.w3.org/Graphics/SVG/1.1/DTD/svg11.dtd">
<!-- Generated by graphviz version 2.43.0 (0)
 -->
<!-- Title: transfer Pages: 1 -->
<svg width="227pt" height="27pt"
 viewBox="0.00 0.00 227.00 27.00" xmlns="http://www.w3.org/2000/svg" xmlns:xlink="http://www.w3.org/1999/xlink">
<g id="graph0" class="graph" transform="scale(1 1) rotate(0) translate(4 23)">
<title>transfer</title>
<!-- Node1 -->
<g id="node1" class="node">
<title>Node1</title>
<g id="a_node1"><a xlink:title="通常モードからトレイルモードに切り替える関数">
<polygon fill="#999999" stroke="#666666" points="219,-19 164,-19 164,0 219,0 219,-19"/>
<text text-anchor="middle" x="191.5" y="-7" font-family="Helvetica,sans-Serif" font-size="10.00">transfer</text>
</a>
</g>
</g>
<!-- Node2 -->
<g id="node2" class="node">
<title>Node2</title>
<g id="a_node2"><a xlink:href="common_8c.html#a4505492b0d75bf74b7ad9d14e2850c9e" target="_top" xlink:title="バイパスの挙動を定義する関数">
<polygon fill="white" stroke="#666666" points="128,-19 77,-19 77,0 128,0 128,-19"/>
<text text-anchor="middle" x="102.5" y="-7" font-family="Helvetica,sans-Serif" font-size="10.00">bypass</text>
</a>
</g>
</g>
<!-- Node1&#45;&gt;Node2 -->
<g id="edge1" class="edge">
<title>Node1&#45;&gt;Node2</title>
<path fill="none" stroke="#63b8ff" d="M153.68,-9.5C145.06,-9.5 136.07,-9.5 128.13,-9.5"/>
<polygon fill="#63b8ff" stroke="#63b8ff" points="153.92,-13 163.92,-9.5 153.92,-6 153.92,-13"/>
</g>
<!-- Node3 -->
<g id="node3" class="node">
<title>Node3</title>
<g id="a_node3"><a xlink:href="main_8c.html#a6288eba0f8e8ad3ab1544ad731eb7667" target="_top" xlink:title="サボり上司">
<polygon fill="white" stroke="#666666" points="41,-19 0,-19 0,0 41,0 41,-19"/>
<text text-anchor="middle" x="20.5" y="-7" font-family="Helvetica,sans-Serif" font-size="10.00">main</text>
</a>
</g>
</g>
<!-- Node2&#45;&gt;Node3 -->
<g id="edge2" class="edge">
<title>Node2&#45;&gt;Node3</title>
<path fill="none" stroke="#63b8ff" d="M66.59,-9.5C57.83,-9.5 48.73,-9.5 41.02,-9.5"/>
<polygon fill="#63b8ff" stroke="#63b8ff" points="66.63,-13 76.63,-9.5 66.63,-6 66.63,-13"/>
</g>
</g>
</svg>
