<?xml version="1.0" encoding="UTF-8" standalone="no"?>
<!DOCTYPE svg PUBLIC "-//W3C//DTD SVG 1.1//EN"
 "http://www.w3.org/Graphics/SVG/1.1/DTD/svg11.dtd">
<!-- Generated by graphviz version 2.43.0 (0)
 -->
<!-- Title: header.h Pages: 1 -->
<svg width="240pt" height="82pt"
 viewBox="0.00 0.00 240.00 82.00" xmlns="http://www.w3.org/2000/svg" xmlns:xlink="http://www.w3.org/1999/xlink">
<g id="graph0" class="graph" transform="scale(1 1) rotate(0) translate(4 78)">
<title>header.h</title>
<!-- Node1 -->
<g id="node1" class="node">
<title>Node1</title>
<g id="a_node1"><a xlink:title=" ">
<polygon fill="#999999" stroke="#666666" points="159.5,-74 100.5,-74 100.5,-55 159.5,-55 159.5,-74"/>
<text text-anchor="middle" x="130" y="-62" font-family="Helvetica,sans-Serif" font-size="10.00">header.h</text>
</a>
</g>
</g>
<!-- Node2 -->
<g id="node2" class="node">
<title>Node2</title>
<g id="a_node2"><a xlink:href="PIC12F6XX_8c.html" target="_top" xlink:title="PIC12F629, PIC12F675用の関数を定義するファイル">
<polygon fill="white" stroke="#666666" points="78,-19 0,-19 0,0 78,0 78,-19"/>
<text text-anchor="middle" x="39" y="-7" font-family="Helvetica,sans-Serif" font-size="10.00">PIC12F6XX.c</text>
</a>
</g>
</g>
<!-- Node1&#45;&gt;Node2 -->
<g id="edge1" class="edge">
<title>Node1&#45;&gt;Node2</title>
<path fill="none" stroke="#63b8ff" d="M106.3,-49.7C89.72,-40.04 68.09,-27.44 53.89,-19.17"/>
<polygon fill="#63b8ff" stroke="#63b8ff" points="104.98,-52.98 115.38,-54.98 108.5,-46.93 104.98,-52.98"/>
</g>
<!-- Node3 -->
<g id="node3" class="node">
<title>Node3</title>
<g id="a_node3"><a xlink:href="common_8c.html" target="_top" xlink:title="PICマイコンによらず共通な関数を定義するファイル">
<polygon fill="white" stroke="#666666" points="164,-19 96,-19 96,0 164,0 164,-19"/>
<text text-anchor="middle" x="130" y="-7" font-family="Helvetica,sans-Serif" font-size="10.00">common.c</text>
</a>
</g>
</g>
<!-- Node1&#45;&gt;Node3 -->
<g id="edge2" class="edge">
<title>Node1&#45;&gt;Node3</title>
<path fill="none" stroke="#63b8ff" d="M130,-44.66C130,-35.93 130,-25.99 130,-19.09"/>
<polygon fill="#63b8ff" stroke="#63b8ff" points="126.5,-44.75 130,-54.75 133.5,-44.75 126.5,-44.75"/>
</g>
<!-- Node4 -->
<g id="node4" class="node">
<title>Node4</title>
<g id="a_node4"><a xlink:href="main_8c.html" target="_top" xlink:title="Program for Trail True Bypass with PIC microcontroller.">
<polygon fill="white" stroke="#666666" points="232,-19 182,-19 182,0 232,0 232,-19"/>
<text text-anchor="middle" x="207" y="-7" font-family="Helvetica,sans-Serif" font-size="10.00">main.c</text>
</a>
</g>
</g>
<!-- Node1&#45;&gt;Node4 -->
<g id="edge3" class="edge">
<title>Node1&#45;&gt;Node4</title>
<path fill="none" stroke="#63b8ff" d="M150.85,-49.15C164.76,-39.57 182.61,-27.29 194.4,-19.17"/>
<polygon fill="#63b8ff" stroke="#63b8ff" points="148.62,-46.43 142.37,-54.98 152.59,-52.2 148.62,-46.43"/>
</g>
</g>
</svg>
