<?xml version="1.0" encoding="UTF-8" standalone="no"?>
<!DOCTYPE svg PUBLIC "-//W3C//DTD SVG 1.1//EN"
 "http://www.w3.org/Graphics/SVG/1.1/DTD/svg11.dtd">
<!-- Generated by graphviz version 2.43.0 (0)
 -->
<!-- Title: setInitState Pages: 1 -->
<svg width="178pt" height="101pt"
 viewBox="0.00 0.00 178.00 101.00" xmlns="http://www.w3.org/2000/svg" xmlns:xlink="http://www.w3.org/1999/xlink">
<g id="graph0" class="graph" transform="scale(1 1) rotate(0) translate(4 97)">
<title>setInitState</title>
<!-- Node1 -->
<g id="node1" class="node">
<title>Node1</title>
<g id="a_node1"><a xlink:title="アナログ機能を無効化する関数">
<polygon fill="#999999" stroke="#666666" points="73,-56 0,-56 0,-37 73,-37 73,-56"/>
<text text-anchor="middle" x="36.5" y="-44" font-family="Helvetica,sans-Serif" font-size="10.00">setInitState</text>
</a>
</g>
</g>
<!-- Node2 -->
<g id="node2" class="node">
<title>Node2</title>
<g id="a_node2"><a xlink:href="PIC12F6XX_8c.html#a6933d56410a79bc99303c7f4f54521ca" target="_top" xlink:title="EEPROMからデータを読み込む関数">
<polygon fill="white" stroke="#666666" points="169,-93 110,-93 110,-74 169,-74 169,-93"/>
<text text-anchor="middle" x="139.5" y="-81" font-family="Helvetica,sans-Serif" font-size="10.00">eepRead</text>
</a>
</g>
</g>
<!-- Node1&#45;&gt;Node2 -->
<g id="edge1" class="edge">
<title>Node1&#45;&gt;Node2</title>
<path fill="none" stroke="#63b8ff" d="M63.51,-56.03C75.43,-60.4 89.76,-65.64 102.68,-70.38"/>
<polygon fill="#63b8ff" stroke="#63b8ff" points="101.63,-73.72 112.23,-73.88 104.04,-67.15 101.63,-73.72"/>
</g>
<!-- Node3 -->
<g id="node3" class="node">
<title>Node3</title>
<g id="a_node3"><a xlink:href="PIC12F6XX_8c.html#a64719dac9a22c3c4752c799ffc69b25a" target="_top" xlink:title="EEPROMにデータを書き込む関数">
<polygon fill="white" stroke="#666666" points="170,-56 109,-56 109,-37 170,-37 170,-56"/>
<text text-anchor="middle" x="139.5" y="-44" font-family="Helvetica,sans-Serif" font-size="10.00">eepWrite</text>
</a>
</g>
</g>
<!-- Node1&#45;&gt;Node3 -->
<g id="edge2" class="edge">
<title>Node1&#45;&gt;Node3</title>
<path fill="none" stroke="#63b8ff" d="M73.11,-46.5C81.43,-46.5 90.34,-46.5 98.82,-46.5"/>
<polygon fill="#63b8ff" stroke="#63b8ff" points="98.88,-50 108.88,-46.5 98.88,-43 98.88,-50"/>
</g>
<!-- Node4 -->
<g id="node4" class="node">
<title>Node4</title>
<g id="a_node4"><a xlink:href="common_8c.html#ab1be8587a70ecef36ec9bc5afc406df8" target="_top" xlink:title="LEDを点滅させる関数">
<polygon fill="white" stroke="#666666" points="169,-19 110,-19 110,0 169,0 169,-19"/>
<text text-anchor="middle" x="139.5" y="-7" font-family="Helvetica,sans-Serif" font-size="10.00">flashLED</text>
</a>
</g>
</g>
<!-- Node1&#45;&gt;Node4 -->
<g id="edge3" class="edge">
<title>Node1&#45;&gt;Node4</title>
<path fill="none" stroke="#63b8ff" d="M63.51,-36.97C75.43,-32.6 89.76,-27.36 102.68,-22.62"/>
<polygon fill="#63b8ff" stroke="#63b8ff" points="104.04,-25.85 112.23,-19.12 101.63,-19.28 104.04,-25.85"/>
</g>
</g>
</svg>
