<?xml version="1.0" encoding="UTF-8" standalone="no"?>
<!DOCTYPE svg PUBLIC "-//W3C//DTD SVG 1.1//EN"
 "http://www.w3.org/Graphics/SVG/1.1/DTD/svg11.dtd">
<!-- Generated by graphviz version 2.43.0 (0)
 -->
<!-- Title: waitPhotoCoupler Pages: 1 -->
<svg width="391pt" height="46pt"
 viewBox="0.00 0.00 391.00 46.00" xmlns="http://www.w3.org/2000/svg" xmlns:xlink="http://www.w3.org/1999/xlink">
<g id="graph0" class="graph" transform="scale(1 1) rotate(0) translate(4 42)">
<title>waitPhotoCoupler</title>
<!-- Node1 -->
<g id="node1" class="node">
<title>Node1</title>
<g id="a_node1"><a xlink:title=" ">
<polygon fill="#999999" stroke="#666666" points="383,-38 280,-38 280,-19 383,-19 383,-38"/>
<text text-anchor="middle" x="331.5" y="-26" font-family="Helvetica,sans-Serif" font-size="10.00">waitPhotoCoupler</text>
</a>
</g>
</g>
<!-- Node2 -->
<g id="node2" class="node">
<title>Node2</title>
<g id="a_node2"><a xlink:href="common_8c.html#a4505492b0d75bf74b7ad9d14e2850c9e" target="_top" xlink:title="バイパスの挙動を定義する関数">
<polygon fill="white" stroke="#666666" points="128,-38 77,-38 77,-19 128,-19 128,-38"/>
<text text-anchor="middle" x="102.5" y="-26" font-family="Helvetica,sans-Serif" font-size="10.00">bypass</text>
</a>
</g>
</g>
<!-- Node1&#45;&gt;Node2 -->
<g id="edge1" class="edge">
<title>Node1&#45;&gt;Node2</title>
<path fill="none" stroke="#63b8ff" d="M269.59,-28.5C223.22,-28.5 161.81,-28.5 128.16,-28.5"/>
<polygon fill="#63b8ff" stroke="#63b8ff" points="269.84,-32 279.84,-28.5 269.84,-25 269.84,-32"/>
</g>
<!-- Node4 -->
<g id="node4" class="node">
<title>Node4</title>
<g id="a_node4"><a xlink:href="common_8c.html#a7ee3eeaca131e64d4a618e155ed0c650" target="_top" xlink:title="モードスイッチをスキャンして、適宜モードを切り替える関数">
<polygon fill="white" stroke="#666666" points="244,-19 164,-19 164,0 244,0 244,-19"/>
<text text-anchor="middle" x="204" y="-7" font-family="Helvetica,sans-Serif" font-size="10.00">scanModeSw</text>
</a>
</g>
</g>
<!-- Node1&#45;&gt;Node4 -->
<g id="edge3" class="edge">
<title>Node1&#45;&gt;Node4</title>
<path fill="none" stroke="#63b8ff" d="M269.73,-19.3C261.08,-17.99 252.38,-16.67 244.29,-15.45"/>
<polygon fill="#63b8ff" stroke="#63b8ff" points="269.4,-22.79 279.82,-20.83 270.45,-15.87 269.4,-22.79"/>
</g>
<!-- Node3 -->
<g id="node3" class="node">
<title>Node3</title>
<g id="a_node3"><a xlink:href="main_8c.html#a6288eba0f8e8ad3ab1544ad731eb7667" target="_top" xlink:title="サボり上司">
<polygon fill="white" stroke="#666666" points="41,-38 0,-38 0,-19 41,-19 41,-38"/>
<text text-anchor="middle" x="20.5" y="-26" font-family="Helvetica,sans-Serif" font-size="10.00">main</text>
</a>
</g>
</g>
<!-- Node2&#45;&gt;Node3 -->
<g id="edge2" class="edge">
<title>Node2&#45;&gt;Node3</title>
<path fill="none" stroke="#63b8ff" d="M66.59,-28.5C57.83,-28.5 48.73,-28.5 41.02,-28.5"/>
<polygon fill="#63b8ff" stroke="#63b8ff" points="66.63,-32 76.63,-28.5 66.63,-25 66.63,-32"/>
</g>
<!-- Node4&#45;&gt;Node2 -->
<g id="edge4" class="edge">
<title>Node4&#45;&gt;Node2</title>
<path fill="none" stroke="#63b8ff" d="M153.91,-18.87C144.94,-20.59 135.94,-22.3 128.08,-23.81"/>
<polygon fill="#63b8ff" stroke="#63b8ff" points="154.79,-22.27 163.96,-16.95 153.48,-15.39 154.79,-22.27"/>
</g>
</g>
</svg>
