<?xml version="1.0" encoding="UTF-8" standalone="no"?>
<!DOCTYPE svg PUBLIC "-//W3C//DTD SVG 1.1//EN"
 "http://www.w3.org/Graphics/SVG/1.1/DTD/svg11.dtd">
<!-- Generated by graphviz version 2.43.0 (0)
 -->
<!-- Title: header.h Pages: 1 -->
<svg width="144pt" height="82pt"
 viewBox="0.00 0.00 144.00 82.00" xmlns="http://www.w3.org/2000/svg" xmlns:xlink="http://www.w3.org/1999/xlink">
<g id="graph0" class="graph" transform="scale(1 1) rotate(0) translate(4 78)">
<title>header.h</title>
<!-- Node1 -->
<g id="node1" class="node">
<title>Node1</title>
<g id="a_node1"><a xlink:title=" ">
<polygon fill="#999999" stroke="#666666" points="101.5,-74 42.5,-74 42.5,-55 101.5,-55 101.5,-74"/>
<text text-anchor="middle" x="72" y="-62" font-family="Helvetica,sans-Serif" font-size="10.00">header.h</text>
</a>
</g>
</g>
<!-- Node2 -->
<g id="node2" class="node">
<title>Node2</title>
<g id="a_node2"><a xlink:href="common_8c.html" target="_top" xlink:title="PICマイコンによらず共通な関数を定義するファイル">
<polygon fill="white" stroke="#666666" points="68,-19 0,-19 0,0 68,0 68,-19"/>
<text text-anchor="middle" x="34" y="-7" font-family="Helvetica,sans-Serif" font-size="10.00">common.c</text>
</a>
</g>
</g>
<!-- Node1&#45;&gt;Node2 -->
<g id="edge1" class="edge">
<title>Node1&#45;&gt;Node2</title>
<path fill="none" stroke="#63b8ff" d="M59.73,-46.39C53.19,-37.27 45.43,-26.45 40.16,-19.09"/>
<polygon fill="#63b8ff" stroke="#63b8ff" points="57.05,-48.66 65.73,-54.75 62.74,-44.58 57.05,-48.66"/>
</g>
<!-- Node3 -->
<g id="node3" class="node">
<title>Node3</title>
<g id="a_node3"><a xlink:href="main_8c.html" target="_top" xlink:title="Program for Trail True Bypass with PIC microcontroller.">
<polygon fill="white" stroke="#666666" points="136,-19 86,-19 86,0 136,0 136,-19"/>
<text text-anchor="middle" x="111" y="-7" font-family="Helvetica,sans-Serif" font-size="10.00">main.c</text>
</a>
</g>
</g>
<!-- Node1&#45;&gt;Node3 -->
<g id="edge2" class="edge">
<title>Node1&#45;&gt;Node3</title>
<path fill="none" stroke="#63b8ff" d="M84.38,-46.67C91.14,-37.5 99.21,-26.52 104.68,-19.09"/>
<polygon fill="#63b8ff" stroke="#63b8ff" points="81.55,-44.62 78.44,-54.75 87.19,-48.77 81.55,-44.62"/>
</g>
</g>
</svg>
