<?xml version="1.0" encoding="UTF-8" standalone="no"?>
<!DOCTYPE svg PUBLIC "-//W3C//DTD SVG 1.1//EN"
 "http://www.w3.org/Graphics/SVG/1.1/DTD/svg11.dtd">
<!-- Generated by graphviz version 2.43.0 (0)
 -->
<!-- Title: waitChattering Pages: 1 -->
<svg width="395pt" height="101pt"
 viewBox="0.00 0.00 395.00 101.00" xmlns="http://www.w3.org/2000/svg" xmlns:xlink="http://www.w3.org/1999/xlink">
<g id="graph0" class="graph" transform="scale(1 1) rotate(0) translate(4 97)">
<title>waitChattering</title>
<!-- Node1 -->
<g id="node1" class="node">
<title>Node1</title>
<g id="a_node1"><a xlink:title=" ">
<polygon fill="#999999" stroke="#666666" points="387,-56 298,-56 298,-37 387,-37 387,-56"/>
<text text-anchor="middle" x="342.5" y="-44" font-family="Helvetica,sans-Serif" font-size="10.00">waitChattering</text>
</a>
</g>
</g>
<!-- Node2 -->
<g id="node2" class="node">
<title>Node2</title>
<g id="a_node2"><a xlink:href="common_8c.html#a450f740567f3511eb4075639ee9126db" target="_top" xlink:title="割り込み中に実行される関数">
<polygon fill="white" stroke="#666666" points="253,-93 191,-93 191,-74 253,-74 253,-93"/>
<text text-anchor="middle" x="222" y="-81" font-family="Helvetica,sans-Serif" font-size="10.00">insideISR</text>
</a>
</g>
</g>
<!-- Node1&#45;&gt;Node2 -->
<g id="edge1" class="edge">
<title>Node1&#45;&gt;Node2</title>
<path fill="none" stroke="#63b8ff" d="M301.43,-59.01C285.59,-63.96 267.69,-69.54 253,-74.13"/>
<polygon fill="#63b8ff" stroke="#63b8ff" points="302.48,-62.35 310.98,-56.03 300.39,-55.67 302.48,-62.35"/>
</g>
<!-- Node4 -->
<g id="node4" class="node">
<title>Node4</title>
<g id="a_node4"><a xlink:href="common_8c.html#a7ee3eeaca131e64d4a618e155ed0c650" target="_top" xlink:title="モードスイッチをスキャンして、適宜モードを切り替える関数">
<polygon fill="white" stroke="#666666" points="262,-56 182,-56 182,-37 262,-37 262,-56"/>
<text text-anchor="middle" x="222" y="-44" font-family="Helvetica,sans-Serif" font-size="10.00">scanModeSw</text>
</a>
</g>
</g>
<!-- Node1&#45;&gt;Node4 -->
<g id="edge3" class="edge">
<title>Node1&#45;&gt;Node4</title>
<path fill="none" stroke="#63b8ff" d="M287.48,-46.5C279,-46.5 270.37,-46.5 262.3,-46.5"/>
<polygon fill="#63b8ff" stroke="#63b8ff" points="287.71,-50 297.71,-46.5 287.71,-43 287.71,-50"/>
</g>
<!-- Node7 -->
<g id="node7" class="node">
<title>Node7</title>
<g id="a_node7"><a xlink:href="common_8c.html#a70f6100e4f948b633c942e5c6e4c209a" target="_top" xlink:title="アナログ機能を無効化する関数">
<polygon fill="white" stroke="#666666" points="258.5,-19 185.5,-19 185.5,0 258.5,0 258.5,-19"/>
<text text-anchor="middle" x="222" y="-7" font-family="Helvetica,sans-Serif" font-size="10.00">setInitState</text>
</a>
</g>
</g>
<!-- Node1&#45;&gt;Node7 -->
<g id="edge6" class="edge">
<title>Node1&#45;&gt;Node7</title>
<path fill="none" stroke="#63b8ff" d="M301.14,-33.9C285.66,-29.07 268.27,-23.63 253.83,-19.12"/>
<polygon fill="#63b8ff" stroke="#63b8ff" points="300.39,-37.33 310.98,-36.97 302.48,-30.65 300.39,-37.33"/>
</g>
<!-- Node3 -->
<g id="node3" class="node">
<title>Node3</title>
<g id="a_node3"><a xlink:href="PIC12F6XX_8c.html#a4e0a46b9474f02713855286ac17dac6d" target="_top" xlink:title=" ">
<polygon fill="white" stroke="#666666" points="146,-93 77,-93 77,-74 146,-74 146,-93"/>
<text text-anchor="middle" x="111.5" y="-81" font-family="Helvetica,sans-Serif" font-size="10.00">__interrupt</text>
</a>
</g>
</g>
<!-- Node2&#45;&gt;Node3 -->
<g id="edge2" class="edge">
<title>Node2&#45;&gt;Node3</title>
<path fill="none" stroke="#63b8ff" d="M180.71,-83.5C169.42,-83.5 157.26,-83.5 146.38,-83.5"/>
<polygon fill="#63b8ff" stroke="#63b8ff" points="180.78,-87 190.78,-83.5 180.78,-80 180.78,-87"/>
</g>
<!-- Node5 -->
<g id="node5" class="node">
<title>Node5</title>
<g id="a_node5"><a xlink:href="common_8c.html#a4505492b0d75bf74b7ad9d14e2850c9e" target="_top" xlink:title="バイパスの挙動を定義する関数">
<polygon fill="white" stroke="#666666" points="137,-56 86,-56 86,-37 137,-37 137,-56"/>
<text text-anchor="middle" x="111.5" y="-44" font-family="Helvetica,sans-Serif" font-size="10.00">bypass</text>
</a>
</g>
</g>
<!-- Node4&#45;&gt;Node5 -->
<g id="edge4" class="edge">
<title>Node4&#45;&gt;Node5</title>
<path fill="none" stroke="#63b8ff" d="M171.48,-46.5C159.55,-46.5 147.32,-46.5 137.1,-46.5"/>
<polygon fill="#63b8ff" stroke="#63b8ff" points="171.83,-50 181.83,-46.5 171.83,-43 171.83,-50"/>
</g>
<!-- Node6 -->
<g id="node6" class="node">
<title>Node6</title>
<g id="a_node6"><a xlink:href="main_8c.html#a6288eba0f8e8ad3ab1544ad731eb7667" target="_top" xlink:title="サボり上司">
<polygon fill="white" stroke="#666666" points="41,-37 0,-37 0,-18 41,-18 41,-37"/>
<text text-anchor="middle" x="20.5" y="-25" font-family="Helvetica,sans-Serif" font-size="10.00">main</text>
</a>
</g>
</g>
<!-- Node5&#45;&gt;Node6 -->
<g id="edge5" class="edge">
<title>Node5&#45;&gt;Node6</title>
<path fill="none" stroke="#63b8ff" d="M75.71,-39.07C63.95,-36.56 51.24,-33.85 41.09,-31.68"/>
<polygon fill="#63b8ff" stroke="#63b8ff" points="75.2,-42.54 85.71,-41.21 76.66,-35.7 75.2,-42.54"/>
</g>
<!-- Node8 -->
<g id="node8" class="node">
<title>Node8</title>
<g id="a_node8"><a xlink:href="PIC12F6XX_8c.html#a02fd73d861ef2e4aabb38c0c9ff82947" target="_top" xlink:title=" ">
<polygon fill="white" stroke="#666666" points="127.5,-19 95.5,-19 95.5,0 127.5,0 127.5,-19"/>
<text text-anchor="middle" x="111.5" y="-7" font-family="Helvetica,sans-Serif" font-size="10.00">init</text>
</a>
</g>
</g>
<!-- Node7&#45;&gt;Node8 -->
<g id="edge7" class="edge">
<title>Node7&#45;&gt;Node8</title>
<path fill="none" stroke="#63b8ff" d="M175.07,-9.5C158.03,-9.5 139.87,-9.5 127.53,-9.5"/>
<polygon fill="#63b8ff" stroke="#63b8ff" points="175.47,-13 185.47,-9.5 175.47,-6 175.47,-13"/>
</g>
<!-- Node8&#45;&gt;Node6 -->
<g id="edge8" class="edge">
<title>Node8&#45;&gt;Node6</title>
<path fill="none" stroke="#63b8ff" d="M85.4,-14.58C71.35,-17.42 54.08,-20.91 41.04,-23.55"/>
<polygon fill="#63b8ff" stroke="#63b8ff" points="86.29,-17.97 95.4,-12.55 84.91,-11.11 86.29,-17.97"/>
</g>
</g>
</svg>
