<?xml version="1.0" encoding="UTF-8" standalone="no"?>
<!DOCTYPE svg PUBLIC "-//W3C//DTD SVG 1.1//EN"
 "http://www.w3.org/Graphics/SVG/1.1/DTD/svg11.dtd">
<!-- Generated by graphviz version 2.43.0 (0)
 -->
<!-- Title: waitRelay Pages: 1 -->
<svg width="353pt" height="27pt"
 viewBox="0.00 0.00 353.00 27.00" xmlns="http://www.w3.org/2000/svg" xmlns:xlink="http://www.w3.org/1999/xlink">
<g id="graph0" class="graph" transform="scale(1 1) rotate(0) translate(4 23)">
<title>waitRelay</title>
<!-- Node1 -->
<g id="node1" class="node">
<title>Node1</title>
<g id="a_node1"><a xlink:title=" ">
<polygon fill="#999999" stroke="#666666" points="345,-19 280,-19 280,0 345,0 345,-19"/>
<text text-anchor="middle" x="312.5" y="-7" font-family="Helvetica,sans-Serif" font-size="10.00">waitRelay</text>
</a>
</g>
</g>
<!-- Node2 -->
<g id="node2" class="node">
<title>Node2</title>
<g id="a_node2"><a xlink:href="common_8c.html#a7ee3eeaca131e64d4a618e155ed0c650" target="_top" xlink:title="モードスイッチをスキャンして、適宜モードを切り替える関数">
<polygon fill="white" stroke="#666666" points="244,-19 164,-19 164,0 244,0 244,-19"/>
<text text-anchor="middle" x="204" y="-7" font-family="Helvetica,sans-Serif" font-size="10.00">scanModeSw</text>
</a>
</g>
</g>
<!-- Node1&#45;&gt;Node2 -->
<g id="edge1" class="edge">
<title>Node1&#45;&gt;Node2</title>
<path fill="none" stroke="#63b8ff" d="M269.56,-9.5C261.23,-9.5 252.52,-9.5 244.28,-9.5"/>
<polygon fill="#63b8ff" stroke="#63b8ff" points="269.83,-13 279.83,-9.5 269.83,-6 269.83,-13"/>
</g>
<!-- Node3 -->
<g id="node3" class="node">
<title>Node3</title>
<g id="a_node3"><a xlink:href="common_8c.html#a4505492b0d75bf74b7ad9d14e2850c9e" target="_top" xlink:title="バイパスの挙動を定義する関数">
<polygon fill="white" stroke="#666666" points="128,-19 77,-19 77,0 128,0 128,-19"/>
<text text-anchor="middle" x="102.5" y="-7" font-family="Helvetica,sans-Serif" font-size="10.00">bypass</text>
</a>
</g>
</g>
<!-- Node2&#45;&gt;Node3 -->
<g id="edge2" class="edge">
<title>Node2&#45;&gt;Node3</title>
<path fill="none" stroke="#63b8ff" d="M153.91,-9.5C144.94,-9.5 135.94,-9.5 128.08,-9.5"/>
<polygon fill="#63b8ff" stroke="#63b8ff" points="153.96,-13 163.96,-9.5 153.96,-6 153.96,-13"/>
</g>
<!-- Node4 -->
<g id="node4" class="node">
<title>Node4</title>
<g id="a_node4"><a xlink:href="main_8c.html#a6288eba0f8e8ad3ab1544ad731eb7667" target="_top" xlink:title="サボり上司">
<polygon fill="white" stroke="#666666" points="41,-19 0,-19 0,0 41,0 41,-19"/>
<text text-anchor="middle" x="20.5" y="-7" font-family="Helvetica,sans-Serif" font-size="10.00">main</text>
</a>
</g>
</g>
<!-- Node3&#45;&gt;Node4 -->
<g id="edge3" class="edge">
<title>Node3&#45;&gt;Node4</title>
<path fill="none" stroke="#63b8ff" d="M66.59,-9.5C57.83,-9.5 48.73,-9.5 41.02,-9.5"/>
<polygon fill="#63b8ff" stroke="#63b8ff" points="66.63,-13 76.63,-9.5 66.63,-6 66.63,-13"/>
</g>
</g>
</svg>
