<?xml version="1.0" encoding="UTF-8" standalone="no"?>
<!DOCTYPE svg PUBLIC "-//W3C//DTD SVG 1.1//EN"
 "http://www.w3.org/Graphics/SVG/1.1/DTD/svg11.dtd">
<!-- Generated by graphviz version 2.43.0 (0)
 -->
<!-- Title: init Pages: 1 -->
<svg width="137pt" height="101pt"
 viewBox="0.00 0.00 137.00 101.00" xmlns="http://www.w3.org/2000/svg" xmlns:xlink="http://www.w3.org/1999/xlink">
<g id="graph0" class="graph" transform="scale(1 1) rotate(0) translate(4 97)">
<title>init</title>
<!-- Node1 -->
<g id="node1" class="node">
<title>Node1</title>
<g id="a_node1"><a xlink:title="諸々の初期化を行う関数">
<polygon fill="#999999" stroke="#666666" points="32,-56 0,-56 0,-37 32,-37 32,-56"/>
<text text-anchor="middle" x="16" y="-44" font-family="Helvetica,sans-Serif" font-size="10.00">init</text>
</a>
</g>
</g>
<!-- Node2 -->
<g id="node2" class="node">
<title>Node2</title>
<g id="a_node2"><a xlink:href="init_8c.html#a6933d56410a79bc99303c7f4f54521ca" target="_top" xlink:title="EEPROMからデータを読み込む関数">
<polygon fill="white" stroke="#666666" points="128,-93 69,-93 69,-74 128,-74 128,-93"/>
<text text-anchor="middle" x="98.5" y="-81" font-family="Helvetica,sans-Serif" font-size="10.00">eepRead</text>
</a>
</g>
</g>
<!-- Node1&#45;&gt;Node2 -->
<g id="edge1" class="edge">
<title>Node1&#45;&gt;Node2</title>
<path fill="none" stroke="#63b8ff" d="M32.14,-53.46C42.06,-58.02 55.37,-64.13 67.38,-69.66"/>
<polygon fill="#63b8ff" stroke="#63b8ff" points="66.11,-72.92 76.65,-73.92 69.03,-66.56 66.11,-72.92"/>
</g>
<!-- Node3 -->
<g id="node3" class="node">
<title>Node3</title>
<g id="a_node3"><a xlink:href="init_8c.html#a64719dac9a22c3c4752c799ffc69b25a" target="_top" xlink:title="EEPROMにデータを書き込む関数">
<polygon fill="white" stroke="#666666" points="129,-56 68,-56 68,-37 129,-37 129,-56"/>
<text text-anchor="middle" x="98.5" y="-44" font-family="Helvetica,sans-Serif" font-size="10.00">eepWrite</text>
</a>
</g>
</g>
<!-- Node1&#45;&gt;Node3 -->
<g id="edge2" class="edge">
<title>Node1&#45;&gt;Node3</title>
<path fill="none" stroke="#63b8ff" d="M32.14,-46.5C39.42,-46.5 48.53,-46.5 57.61,-46.5"/>
<polygon fill="#63b8ff" stroke="#63b8ff" points="57.75,-50 67.75,-46.5 57.75,-43 57.75,-50"/>
</g>
<!-- Node4 -->
<g id="node4" class="node">
<title>Node4</title>
<g id="a_node4"><a xlink:href="init_8c.html#ab1be8587a70ecef36ec9bc5afc406df8" target="_top" xlink:title="アナログ機能を無効化する関数">
<polygon fill="white" stroke="#666666" points="128,-19 69,-19 69,0 128,0 128,-19"/>
<text text-anchor="middle" x="98.5" y="-7" font-family="Helvetica,sans-Serif" font-size="10.00">flashLED</text>
</a>
</g>
</g>
<!-- Node1&#45;&gt;Node4 -->
<g id="edge3" class="edge">
<title>Node1&#45;&gt;Node4</title>
<path fill="none" stroke="#63b8ff" d="M32.14,-39.54C42.06,-34.98 55.37,-28.87 67.38,-23.34"/>
<polygon fill="#63b8ff" stroke="#63b8ff" points="69.03,-26.44 76.65,-19.08 66.11,-20.08 69.03,-26.44"/>
</g>
</g>
</svg>
