<?xml version="1.0" encoding="UTF-8" standalone="no"?>
<!DOCTYPE svg PUBLIC "-//W3C//DTD SVG 1.1//EN"
 "http://www.w3.org/Graphics/SVG/1.1/DTD/svg11.dtd">
<!-- Generated by graphviz version 2.43.0 (0)
 -->
<!-- Title: main Pages: 1 -->
<svg width="233pt" height="138pt"
 viewBox="0.00 0.00 233.00 138.00" xmlns="http://www.w3.org/2000/svg" xmlns:xlink="http://www.w3.org/1999/xlink">
<g id="graph0" class="graph" transform="scale(1 1) rotate(0) translate(4 134)">
<title>main</title>
<!-- Node1 -->
<g id="node1" class="node">
<title>Node1</title>
<g id="a_node1"><a xlink:title="サボり上司">
<polygon fill="#999999" stroke="#666666" points="41,-92 0,-92 0,-73 41,-73 41,-92"/>
<text text-anchor="middle" x="20.5" y="-80" font-family="Helvetica,sans-Serif" font-size="10.00">main</text>
</a>
</g>
</g>
<!-- Node2 -->
<g id="node2" class="node">
<title>Node2</title>
<g id="a_node2"><a xlink:href="bypass_8c.html#a4505492b0d75bf74b7ad9d14e2850c9e" target="_top" xlink:title="バイパスの挙動を定義する関数">
<polygon fill="white" stroke="#666666" points="128,-120 77,-120 77,-101 128,-101 128,-120"/>
<text text-anchor="middle" x="102.5" y="-108" font-family="Helvetica,sans-Serif" font-size="10.00">bypass</text>
</a>
</g>
</g>
<!-- Node1&#45;&gt;Node2 -->
<g id="edge1" class="edge">
<title>Node1&#45;&gt;Node2</title>
<path fill="none" stroke="#63b8ff" d="M41.28,-89.42C49.07,-92.15 58.27,-95.37 67.09,-98.46"/>
<polygon fill="#63b8ff" stroke="#63b8ff" points="66.2,-101.85 76.8,-101.85 68.51,-95.25 66.2,-101.85"/>
</g>
<!-- Node4 -->
<g id="node4" class="node">
<title>Node4</title>
<g id="a_node4"><a xlink:href="init_8c.html#a02fd73d861ef2e4aabb38c0c9ff82947" target="_top" xlink:title="諸々の初期化を行う関数">
<polygon fill="white" stroke="#666666" points="118.5,-74 86.5,-74 86.5,-55 118.5,-55 118.5,-74"/>
<text text-anchor="middle" x="102.5" y="-62" font-family="Helvetica,sans-Serif" font-size="10.00">init</text>
</a>
</g>
</g>
<!-- Node1&#45;&gt;Node4 -->
<g id="edge3" class="edge">
<title>Node1&#45;&gt;Node4</title>
<path fill="none" stroke="#63b8ff" d="M41.28,-78.05C51.97,-75.64 65.29,-72.65 76.68,-70.08"/>
<polygon fill="#63b8ff" stroke="#63b8ff" points="77.48,-73.49 86.47,-67.88 75.94,-66.66 77.48,-73.49"/>
</g>
<!-- Node3 -->
<g id="node3" class="node">
<title>Node3</title>
<g id="a_node3"><a xlink:href="bypass_8c.html#ae04a2a5b35cc7954e3286d34c4766b74" target="_top" xlink:title="通常モードからトレイルモードに切り替える関数">
<polygon fill="white" stroke="#666666" points="222,-130 167,-130 167,-111 222,-111 222,-130"/>
<text text-anchor="middle" x="194.5" y="-118" font-family="Helvetica,sans-Serif" font-size="10.00">transfer</text>
</a>
</g>
</g>
<!-- Node2&#45;&gt;Node3 -->
<g id="edge2" class="edge">
<title>Node2&#45;&gt;Node3</title>
<path fill="none" stroke="#63b8ff" d="M128.09,-113.23C136.88,-114.21 146.99,-115.33 156.59,-116.4"/>
<polygon fill="#63b8ff" stroke="#63b8ff" points="156.4,-119.9 166.73,-117.53 157.17,-112.94 156.4,-119.9"/>
</g>
<!-- Node5 -->
<g id="node5" class="node">
<title>Node5</title>
<g id="a_node5"><a xlink:href="init_8c.html#a6933d56410a79bc99303c7f4f54521ca" target="_top" xlink:title="EEPROMからデータを読み込む関数">
<polygon fill="white" stroke="#666666" points="224,-93 165,-93 165,-74 224,-74 224,-93"/>
<text text-anchor="middle" x="194.5" y="-81" font-family="Helvetica,sans-Serif" font-size="10.00">eepRead</text>
</a>
</g>
</g>
<!-- Node4&#45;&gt;Node5 -->
<g id="edge4" class="edge">
<title>Node4&#45;&gt;Node5</title>
<path fill="none" stroke="#63b8ff" d="M118.77,-67.72C128.66,-69.81 142.02,-72.63 154.71,-75.31"/>
<polygon fill="#63b8ff" stroke="#63b8ff" points="154.16,-78.77 164.67,-77.41 155.61,-71.92 154.16,-78.77"/>
</g>
<!-- Node6 -->
<g id="node6" class="node">
<title>Node6</title>
<g id="a_node6"><a xlink:href="init_8c.html#a64719dac9a22c3c4752c799ffc69b25a" target="_top" xlink:title="EEPROMにデータを書き込む関数">
<polygon fill="white" stroke="#666666" points="225,-56 164,-56 164,-37 225,-37 225,-56"/>
<text text-anchor="middle" x="194.5" y="-44" font-family="Helvetica,sans-Serif" font-size="10.00">eepWrite</text>
</a>
</g>
</g>
<!-- Node4&#45;&gt;Node6 -->
<g id="edge5" class="edge">
<title>Node4&#45;&gt;Node6</title>
<path fill="none" stroke="#63b8ff" d="M118.77,-61.45C128.5,-59.5 141.6,-56.88 154.11,-54.38"/>
<polygon fill="#63b8ff" stroke="#63b8ff" points="154.82,-57.81 163.94,-52.41 153.44,-50.94 154.82,-57.81"/>
</g>
<!-- Node7 -->
<g id="node7" class="node">
<title>Node7</title>
<g id="a_node7"><a xlink:href="init_8c.html#ab1be8587a70ecef36ec9bc5afc406df8" target="_top" xlink:title="アナログ機能を無効化する関数">
<polygon fill="white" stroke="#666666" points="224,-19 165,-19 165,0 224,0 224,-19"/>
<text text-anchor="middle" x="194.5" y="-7" font-family="Helvetica,sans-Serif" font-size="10.00">flashLED</text>
</a>
</g>
</g>
<!-- Node4&#45;&gt;Node7 -->
<g id="edge6" class="edge">
<title>Node4&#45;&gt;Node7</title>
<path fill="none" stroke="#63b8ff" d="M118.77,-55.17C132.52,-46.77 152.97,-34.27 169.01,-24.47"/>
<polygon fill="#63b8ff" stroke="#63b8ff" points="171.15,-27.26 177.86,-19.06 167.5,-21.29 171.15,-27.26"/>
</g>
</g>
</svg>
