<?xml version="1.0" encoding="UTF-8" standalone="no"?>
<!DOCTYPE svg PUBLIC "-//W3C//DTD SVG 1.1//EN"
 "http://www.w3.org/Graphics/SVG/1.1/DTD/svg11.dtd">
<!-- Generated by graphviz version 2.43.0 (0)
 -->
<!-- Title: main Pages: 1 -->
<svg width="342pt" height="138pt"
 viewBox="0.00 0.00 342.00 138.00" xmlns="http://www.w3.org/2000/svg" xmlns:xlink="http://www.w3.org/1999/xlink">
<g id="graph0" class="graph" transform="scale(1 1) rotate(0) translate(4 134)">
<title>main</title>
<!-- Node1 -->
<g id="node1" class="node">
<title>Node1</title>
<g id="a_node1"><a xlink:title="サボり上司">
<polygon fill="#999999" stroke="#666666" points="41,-111 0,-111 0,-92 41,-92 41,-111"/>
<text text-anchor="middle" x="20.5" y="-99" font-family="Helvetica,sans-Serif" font-size="10.00">main</text>
</a>
</g>
</g>
<!-- Node2 -->
<g id="node2" class="node">
<title>Node2</title>
<g id="a_node2"><a xlink:href="common_8c.html#a4505492b0d75bf74b7ad9d14e2850c9e" target="_top" xlink:title="バイパスの挙動を定義する関数">
<polygon fill="white" stroke="#666666" points="128,-130 77,-130 77,-111 128,-111 128,-130"/>
<text text-anchor="middle" x="102.5" y="-118" font-family="Helvetica,sans-Serif" font-size="10.00">bypass</text>
</a>
</g>
</g>
<!-- Node1&#45;&gt;Node2 -->
<g id="edge1" class="edge">
<title>Node1&#45;&gt;Node2</title>
<path fill="none" stroke="#63b8ff" d="M41.28,-106.2C48.99,-108.03 58.07,-110.19 66.8,-112.26"/>
<polygon fill="#63b8ff" stroke="#63b8ff" points="66.26,-115.73 76.8,-114.63 67.88,-108.92 66.26,-115.73"/>
</g>
<!-- Node4 -->
<g id="node4" class="node">
<title>Node4</title>
<g id="a_node4"><a xlink:href="PIC12F6XX_8c.html#a02fd73d861ef2e4aabb38c0c9ff82947" target="_top" xlink:title=" ">
<polygon fill="white" stroke="#666666" points="118.5,-93 86.5,-93 86.5,-74 118.5,-74 118.5,-93"/>
<text text-anchor="middle" x="102.5" y="-81" font-family="Helvetica,sans-Serif" font-size="10.00">init</text>
</a>
</g>
</g>
<!-- Node1&#45;&gt;Node4 -->
<g id="edge3" class="edge">
<title>Node1&#45;&gt;Node4</title>
<path fill="none" stroke="#63b8ff" d="M41.28,-97.05C51.97,-94.64 65.29,-91.65 76.68,-89.08"/>
<polygon fill="#63b8ff" stroke="#63b8ff" points="77.48,-92.49 86.47,-86.88 75.94,-85.66 77.48,-92.49"/>
</g>
<!-- Node3 -->
<g id="node3" class="node">
<title>Node3</title>
<g id="a_node3"><a xlink:href="common_8c.html#ae04a2a5b35cc7954e3286d34c4766b74" target="_top" xlink:title="通常モードからトレイルモードに切り替える関数">
<polygon fill="white" stroke="#666666" points="228,-130 173,-130 173,-111 228,-111 228,-130"/>
<text text-anchor="middle" x="200.5" y="-118" font-family="Helvetica,sans-Serif" font-size="10.00">transfer</text>
</a>
</g>
</g>
<!-- Node2&#45;&gt;Node3 -->
<g id="edge2" class="edge">
<title>Node2&#45;&gt;Node3</title>
<path fill="none" stroke="#63b8ff" d="M128.22,-120.5C138.69,-120.5 151.1,-120.5 162.61,-120.5"/>
<polygon fill="#63b8ff" stroke="#63b8ff" points="162.84,-124 172.84,-120.5 162.84,-117 162.84,-124"/>
</g>
<!-- Node5 -->
<g id="node5" class="node">
<title>Node5</title>
<g id="a_node5"><a xlink:href="common_8c.html#aa8c277fdab0cc5bc32555aa51957f23b" target="_top" xlink:title="アナログ機能を無効化する関数">
<polygon fill="white" stroke="#666666" points="233,-93 168,-93 168,-74 233,-74 233,-93"/>
<text text-anchor="middle" x="200.5" y="-81" font-family="Helvetica,sans-Serif" font-size="10.00">disAnalog</text>
</a>
</g>
</g>
<!-- Node4&#45;&gt;Node5 -->
<g id="edge4" class="edge">
<title>Node4&#45;&gt;Node5</title>
<path fill="none" stroke="#63b8ff" d="M118.92,-83.5C129.4,-83.5 143.79,-83.5 157.52,-83.5"/>
<polygon fill="#63b8ff" stroke="#63b8ff" points="157.81,-87 167.81,-83.5 157.81,-80 157.81,-87"/>
</g>
<!-- Node6 -->
<g id="node6" class="node">
<title>Node6</title>
<g id="a_node6"><a xlink:href="common_8c.html#a70f6100e4f948b633c942e5c6e4c209a" target="_top" xlink:title="アナログ機能を無効化する関数">
<polygon fill="white" stroke="#666666" points="237,-56 164,-56 164,-37 237,-37 237,-56"/>
<text text-anchor="middle" x="200.5" y="-44" font-family="Helvetica,sans-Serif" font-size="10.00">setInitState</text>
</a>
</g>
</g>
<!-- Node4&#45;&gt;Node6 -->
<g id="edge5" class="edge">
<title>Node4&#45;&gt;Node6</title>
<path fill="none" stroke="#63b8ff" d="M118.92,-77.56C131.39,-72.75 149.4,-65.81 165.24,-59.7"/>
<polygon fill="#63b8ff" stroke="#63b8ff" points="166.68,-62.9 174.75,-56.04 164.16,-56.37 166.68,-62.9"/>
</g>
<!-- Node7 -->
<g id="node7" class="node">
<title>Node7</title>
<g id="a_node7"><a xlink:href="PIC12F6XX_8c.html#a6933d56410a79bc99303c7f4f54521ca" target="_top" xlink:title="EEPROMからデータを読み込む関数">
<polygon fill="white" stroke="#666666" points="333,-93 274,-93 274,-74 333,-74 333,-93"/>
<text text-anchor="middle" x="303.5" y="-81" font-family="Helvetica,sans-Serif" font-size="10.00">eepRead</text>
</a>
</g>
</g>
<!-- Node6&#45;&gt;Node7 -->
<g id="edge6" class="edge">
<title>Node6&#45;&gt;Node7</title>
<path fill="none" stroke="#63b8ff" d="M227.51,-56.03C239.43,-60.4 253.76,-65.64 266.68,-70.38"/>
<polygon fill="#63b8ff" stroke="#63b8ff" points="265.63,-73.72 276.23,-73.88 268.04,-67.15 265.63,-73.72"/>
</g>
<!-- Node8 -->
<g id="node8" class="node">
<title>Node8</title>
<g id="a_node8"><a xlink:href="PIC12F6XX_8c.html#a64719dac9a22c3c4752c799ffc69b25a" target="_top" xlink:title="EEPROMにデータを書き込む関数">
<polygon fill="white" stroke="#666666" points="334,-56 273,-56 273,-37 334,-37 334,-56"/>
<text text-anchor="middle" x="303.5" y="-44" font-family="Helvetica,sans-Serif" font-size="10.00">eepWrite</text>
</a>
</g>
</g>
<!-- Node6&#45;&gt;Node8 -->
<g id="edge7" class="edge">
<title>Node6&#45;&gt;Node8</title>
<path fill="none" stroke="#63b8ff" d="M237.11,-46.5C245.43,-46.5 254.34,-46.5 262.82,-46.5"/>
<polygon fill="#63b8ff" stroke="#63b8ff" points="262.88,-50 272.88,-46.5 262.88,-43 262.88,-50"/>
</g>
<!-- Node9 -->
<g id="node9" class="node">
<title>Node9</title>
<g id="a_node9"><a xlink:href="common_8c.html#ab1be8587a70ecef36ec9bc5afc406df8" target="_top" xlink:title="LEDを点滅させる関数">
<polygon fill="white" stroke="#666666" points="333,-19 274,-19 274,0 333,0 333,-19"/>
<text text-anchor="middle" x="303.5" y="-7" font-family="Helvetica,sans-Serif" font-size="10.00">flashLED</text>
</a>
</g>
</g>
<!-- Node6&#45;&gt;Node9 -->
<g id="edge8" class="edge">
<title>Node6&#45;&gt;Node9</title>
<path fill="none" stroke="#63b8ff" d="M227.51,-36.97C239.43,-32.6 253.76,-27.36 266.68,-22.62"/>
<polygon fill="#63b8ff" stroke="#63b8ff" points="268.04,-25.85 276.23,-19.12 265.63,-19.28 268.04,-25.85"/>
</g>
</g>
</svg>
