<?xml version="1.0" encoding="UTF-8" standalone="no"?>
<!DOCTYPE svg PUBLIC "-//W3C//DTD SVG 1.1//EN"
 "http://www.w3.org/Graphics/SVG/1.1/DTD/svg11.dtd">
<!-- Generated by graphviz version 2.43.0 (0)
 -->
<!-- Title: main Pages: 1 -->
<svg width="391pt" height="212pt"
 viewBox="0.00 0.00 391.00 212.00" xmlns="http://www.w3.org/2000/svg" xmlns:xlink="http://www.w3.org/1999/xlink">
<g id="graph0" class="graph" transform="scale(1 1) rotate(0) translate(4 208)">
<title>main</title>
<!-- Node1 -->
<g id="node1" class="node">
<title>Node1</title>
<g id="a_node1"><a xlink:title="サボり上司">
<polygon fill="#999999" stroke="#666666" points="41,-147 0,-147 0,-128 41,-128 41,-147"/>
<text text-anchor="middle" x="20.5" y="-135" font-family="Helvetica,sans-Serif" font-size="10.00">main</text>
</a>
</g>
</g>
<!-- Node2 -->
<g id="node2" class="node">
<title>Node2</title>
<g id="a_node2"><a xlink:href="common_8c.html#a4505492b0d75bf74b7ad9d14e2850c9e" target="_top" xlink:title="バイパスの挙動を定義する関数">
<polygon fill="white" stroke="#666666" points="128,-166 77,-166 77,-147 128,-147 128,-166"/>
<text text-anchor="middle" x="102.5" y="-154" font-family="Helvetica,sans-Serif" font-size="10.00">bypass</text>
</a>
</g>
</g>
<!-- Node1&#45;&gt;Node2 -->
<g id="edge1" class="edge">
<title>Node1&#45;&gt;Node2</title>
<path fill="none" stroke="#63b8ff" d="M41.28,-142.2C48.99,-144.03 58.07,-146.19 66.8,-148.26"/>
<polygon fill="#63b8ff" stroke="#63b8ff" points="66.26,-151.73 76.8,-150.63 67.88,-144.92 66.26,-151.73"/>
</g>
<!-- Node7 -->
<g id="node7" class="node">
<title>Node7</title>
<g id="a_node7"><a xlink:href="PIC12F6XX_8c.html#a02fd73d861ef2e4aabb38c0c9ff82947" target="_top" xlink:title=" ">
<polygon fill="white" stroke="#666666" points="118.5,-129 86.5,-129 86.5,-110 118.5,-110 118.5,-129"/>
<text text-anchor="middle" x="102.5" y="-117" font-family="Helvetica,sans-Serif" font-size="10.00">init</text>
</a>
</g>
</g>
<!-- Node1&#45;&gt;Node7 -->
<g id="edge7" class="edge">
<title>Node1&#45;&gt;Node7</title>
<path fill="none" stroke="#63b8ff" d="M41.28,-133.05C51.97,-130.64 65.29,-127.65 76.68,-125.08"/>
<polygon fill="#63b8ff" stroke="#63b8ff" points="77.48,-128.49 86.47,-122.88 75.94,-121.66 77.48,-128.49"/>
</g>
<!-- Node3 -->
<g id="node3" class="node">
<title>Node3</title>
<g id="a_node3"><a xlink:href="common_8c.html#a7ee3eeaca131e64d4a618e155ed0c650" target="_top" xlink:title="モードスイッチをスキャンして、適宜モードを切り替える関数">
<polygon fill="white" stroke="#666666" points="244,-166 164,-166 164,-147 244,-147 244,-166"/>
<text text-anchor="middle" x="204" y="-154" font-family="Helvetica,sans-Serif" font-size="10.00">scanModeSw</text>
</a>
</g>
</g>
<!-- Node2&#45;&gt;Node3 -->
<g id="edge2" class="edge">
<title>Node2&#45;&gt;Node3</title>
<path fill="none" stroke="#63b8ff" d="M128.1,-156.5C135.96,-156.5 144.95,-156.5 153.92,-156.5"/>
<polygon fill="#63b8ff" stroke="#63b8ff" points="153.97,-160 163.97,-156.5 153.97,-153 153.97,-160"/>
</g>
<!-- Node5 -->
<g id="node5" class="node">
<title>Node5</title>
<g id="a_node5"><a xlink:href="header_8h.html#a81367fdb31f37ba7d2a30d0e09b28b35" target="_top" xlink:title=" ">
<polygon fill="white" stroke="#666666" points="383,-204 280,-204 280,-185 383,-185 383,-204"/>
<text text-anchor="middle" x="331.5" y="-192" font-family="Helvetica,sans-Serif" font-size="10.00">waitPhotoCoupler</text>
</a>
</g>
</g>
<!-- Node2&#45;&gt;Node5 -->
<g id="edge6" class="edge">
<title>Node2&#45;&gt;Node5</title>
<path fill="none" stroke="#63b8ff" d="M128.24,-165.44C139.08,-169.06 152.05,-172.97 164,-175.5 198.67,-182.85 238.05,-187.51 269.8,-190.37"/>
<polygon fill="#63b8ff" stroke="#63b8ff" points="269.56,-193.86 279.82,-191.24 270.16,-186.89 269.56,-193.86"/>
</g>
<!-- Node4 -->
<g id="node4" class="node">
<title>Node4</title>
<g id="a_node4"><a xlink:href="header_8h.html#a896a4f8d3daad77204547524b2c803bc" target="_top" xlink:title=" ">
<polygon fill="white" stroke="#666666" points="376,-130 287,-130 287,-111 376,-111 376,-130"/>
<text text-anchor="middle" x="331.5" y="-118" font-family="Helvetica,sans-Serif" font-size="10.00">waitChattering</text>
</a>
</g>
</g>
<!-- Node3&#45;&gt;Node4 -->
<g id="edge3" class="edge">
<title>Node3&#45;&gt;Node4</title>
<path fill="none" stroke="#63b8ff" d="M238.3,-146.95C253.34,-142.63 271.29,-137.49 287.34,-132.88"/>
<polygon fill="#63b8ff" stroke="#63b8ff" points="288.39,-136.22 297.04,-130.1 286.46,-129.49 288.39,-136.22"/>
</g>
<!-- Node3&#45;&gt;Node5 -->
<g id="edge4" class="edge">
<title>Node3&#45;&gt;Node5</title>
<path fill="none" stroke="#63b8ff" d="M236.67,-166.09C252.57,-170.9 272.04,-176.8 289.11,-181.97"/>
<polygon fill="#63b8ff" stroke="#63b8ff" points="288.26,-185.37 298.84,-184.91 290.28,-178.67 288.26,-185.37"/>
</g>
<!-- Node6 -->
<g id="node6" class="node">
<title>Node6</title>
<g id="a_node6"><a xlink:href="header_8h.html#a4daaabbaa70e855fc1e74004ad507c2b" target="_top" xlink:title=" ">
<polygon fill="white" stroke="#666666" points="364,-167 299,-167 299,-148 364,-148 364,-167"/>
<text text-anchor="middle" x="331.5" y="-155" font-family="Helvetica,sans-Serif" font-size="10.00">waitRelay</text>
</a>
</g>
</g>
<!-- Node3&#45;&gt;Node6 -->
<g id="edge5" class="edge">
<title>Node3&#45;&gt;Node6</title>
<path fill="none" stroke="#63b8ff" d="M244.02,-156.81C258.15,-156.92 274.16,-157.05 288.53,-157.17"/>
<polygon fill="#63b8ff" stroke="#63b8ff" points="288.63,-160.67 298.65,-157.25 288.68,-153.67 288.63,-160.67"/>
</g>
<!-- Node8 -->
<g id="node8" class="node">
<title>Node8</title>
<g id="a_node8"><a xlink:href="common_8c.html#aa8c277fdab0cc5bc32555aa51957f23b" target="_top" xlink:title="アナログ機能を無効化する関数">
<polygon fill="white" stroke="#666666" points="236.5,-129 171.5,-129 171.5,-110 236.5,-110 236.5,-129"/>
<text text-anchor="middle" x="204" y="-117" font-family="Helvetica,sans-Serif" font-size="10.00">disAnalog</text>
</a>
</g>
</g>
<!-- Node7&#45;&gt;Node8 -->
<g id="edge8" class="edge">
<title>Node7&#45;&gt;Node8</title>
<path fill="none" stroke="#63b8ff" d="M118.61,-119.5C129.92,-119.5 145.97,-119.5 161.04,-119.5"/>
<polygon fill="#63b8ff" stroke="#63b8ff" points="161.24,-123 171.24,-119.5 161.24,-116 161.24,-123"/>
</g>
<!-- Node9 -->
<g id="node9" class="node">
<title>Node9</title>
<g id="a_node9"><a xlink:href="common_8c.html#a70f6100e4f948b633c942e5c6e4c209a" target="_top" xlink:title="アナログ機能を無効化する関数">
<polygon fill="white" stroke="#666666" points="240.5,-92 167.5,-92 167.5,-73 240.5,-73 240.5,-92"/>
<text text-anchor="middle" x="204" y="-80" font-family="Helvetica,sans-Serif" font-size="10.00">setInitState</text>
</a>
</g>
</g>
<!-- Node7&#45;&gt;Node9 -->
<g id="edge9" class="edge">
<title>Node7&#45;&gt;Node9</title>
<path fill="none" stroke="#63b8ff" d="M118.61,-113.88C131.61,-109.05 150.87,-101.89 167.71,-95.62"/>
<polygon fill="#63b8ff" stroke="#63b8ff" points="169.12,-98.83 177.28,-92.07 166.68,-92.27 169.12,-98.83"/>
</g>
<!-- Node9&#45;&gt;Node4 -->
<g id="edge13" class="edge">
<title>Node9&#45;&gt;Node4</title>
<path fill="none" stroke="#63b8ff" d="M236.67,-92.09C252.57,-96.9 272.04,-102.8 289.11,-107.97"/>
<polygon fill="#63b8ff" stroke="#63b8ff" points="288.26,-111.37 298.84,-110.91 290.28,-104.67 288.26,-111.37"/>
</g>
<!-- Node10 -->
<g id="node10" class="node">
<title>Node10</title>
<g id="a_node10"><a xlink:href="PIC12F6XX_8c.html#a6933d56410a79bc99303c7f4f54521ca" target="_top" xlink:title="EEPROMからデータを読み込む関数">
<polygon fill="white" stroke="#666666" points="361,-93 302,-93 302,-74 361,-74 361,-93"/>
<text text-anchor="middle" x="331.5" y="-81" font-family="Helvetica,sans-Serif" font-size="10.00">eepRead</text>
</a>
</g>
</g>
<!-- Node9&#45;&gt;Node10 -->
<g id="edge10" class="edge">
<title>Node9&#45;&gt;Node10</title>
<path fill="none" stroke="#63b8ff" d="M240.63,-82.78C256.56,-82.91 275.38,-83.06 291.67,-83.19"/>
<polygon fill="#63b8ff" stroke="#63b8ff" points="291.93,-86.69 301.95,-83.27 291.98,-79.69 291.93,-86.69"/>
</g>
<!-- Node11 -->
<g id="node11" class="node">
<title>Node11</title>
<g id="a_node11"><a xlink:href="PIC12F6XX_8c.html#a64719dac9a22c3c4752c799ffc69b25a" target="_top" xlink:title="EEPROMにデータを書き込む関数">
<polygon fill="white" stroke="#666666" points="362,-56 301,-56 301,-37 362,-37 362,-56"/>
<text text-anchor="middle" x="331.5" y="-44" font-family="Helvetica,sans-Serif" font-size="10.00">eepWrite</text>
</a>
</g>
</g>
<!-- Node9&#45;&gt;Node11 -->
<g id="edge11" class="edge">
<title>Node9&#45;&gt;Node11</title>
<path fill="none" stroke="#63b8ff" d="M238.3,-72.95C254.57,-68.28 274.25,-62.63 291.25,-57.76"/>
<polygon fill="#63b8ff" stroke="#63b8ff" points="292.25,-61.11 300.9,-54.99 290.32,-54.38 292.25,-61.11"/>
</g>
<!-- Node12 -->
<g id="node12" class="node">
<title>Node12</title>
<g id="a_node12"><a xlink:href="common_8c.html#ab1be8587a70ecef36ec9bc5afc406df8" target="_top" xlink:title="LEDを点滅させる関数">
<polygon fill="white" stroke="#666666" points="361,-19 302,-19 302,0 361,0 361,-19"/>
<text text-anchor="middle" x="331.5" y="-7" font-family="Helvetica,sans-Serif" font-size="10.00">flashLED</text>
</a>
</g>
</g>
<!-- Node9&#45;&gt;Node12 -->
<g id="edge12" class="edge">
<title>Node9&#45;&gt;Node12</title>
<path fill="none" stroke="#63b8ff" d="M216,-72.82C230.04,-60.87 255.46,-40.51 280,-27.5 283.95,-25.41 288.19,-23.47 292.47,-21.7"/>
<polygon fill="#63b8ff" stroke="#63b8ff" points="293.76,-24.95 301.83,-18.09 291.24,-18.42 293.76,-24.95"/>
</g>
</g>
</svg>
