<?xml version="1.0" encoding="UTF-8" standalone="no"?>
<!DOCTYPE svg PUBLIC "-//W3C//DTD SVG 1.1//EN"
 "http://www.w3.org/Graphics/SVG/1.1/DTD/svg11.dtd">
<!-- Generated by graphviz version 2.43.0 (0)
 -->
<!-- Title: PIC12F6XX.c Pages: 1 -->
<svg width="210pt" height="192pt"
 viewBox="0.00 0.00 209.50 192.00" xmlns="http://www.w3.org/2000/svg" xmlns:xlink="http://www.w3.org/1999/xlink">
<g id="graph0" class="graph" transform="scale(1 1) rotate(0) translate(4 188)">
<title>PIC12F6XX.c</title>
<!-- Node1 -->
<g id="node1" class="node">
<title>Node1</title>
<g id="a_node1"><a xlink:title="PIC12F629, PIC12F675用の関数を定義するファイル">
<polygon fill="#999999" stroke="#666666" points="152,-184 74,-184 74,-165 152,-165 152,-184"/>
<text text-anchor="middle" x="113" y="-172" font-family="Helvetica,sans-Serif" font-size="10.00">PIC12F6XX.c</text>
</a>
</g>
</g>
<!-- Node2 -->
<g id="node2" class="node">
<title>Node2</title>
<g id="a_node2"><a xlink:href="PIC12F6XX_8h.html" target="_top" xlink:title=" ">
<polygon fill="white" stroke="#666666" points="121.5,-74 42.5,-74 42.5,-55 121.5,-55 121.5,-74"/>
<text text-anchor="middle" x="82" y="-62" font-family="Helvetica,sans-Serif" font-size="10.00">PIC12F6XX.h</text>
</a>
</g>
</g>
<!-- Node1&#45;&gt;Node2 -->
<g id="edge1" class="edge">
<title>Node1&#45;&gt;Node2</title>
<path fill="none" stroke="#63b8ff" d="M110.46,-164.66C105.42,-147.09 94.04,-107.45 87.3,-83.95"/>
<polygon fill="#63b8ff" stroke="#63b8ff" points="90.61,-82.8 84.49,-74.16 83.88,-84.74 90.61,-82.8"/>
</g>
<!-- Node6 -->
<g id="node6" class="node">
<title>Node6</title>
<g id="a_node6"><a xlink:href="header_8h.html" target="_top" xlink:title=" ">
<polygon fill="white" stroke="#666666" points="178,-129 110,-129 110,-110 178,-110 178,-129"/>
<text text-anchor="middle" x="144" y="-117" font-family="Helvetica,sans-Serif" font-size="10.00">../header.h</text>
</a>
</g>
</g>
<!-- Node1&#45;&gt;Node6 -->
<g id="edge5" class="edge">
<title>Node1&#45;&gt;Node6</title>
<path fill="none" stroke="#63b8ff" d="M118.12,-164.75C122.36,-157.49 128.53,-146.95 133.78,-137.98"/>
<polygon fill="#63b8ff" stroke="#63b8ff" points="136.95,-139.49 138.98,-129.09 130.91,-135.95 136.95,-139.49"/>
</g>
<!-- Node3 -->
<g id="node3" class="node">
<title>Node3</title>
<g id="a_node3"><a xlink:title=" ">
<polygon fill="#e0e0e0" stroke="#999999" points="62,-19 0,-19 0,0 62,0 62,-19"/>
<text text-anchor="middle" x="31" y="-7" font-family="Helvetica,sans-Serif" font-size="10.00">stdbool.h</text>
</a>
</g>
</g>
<!-- Node2&#45;&gt;Node3 -->
<g id="edge2" class="edge">
<title>Node2&#45;&gt;Node3</title>
<path fill="none" stroke="#63b8ff" d="M73.58,-54.75C66.23,-47.11 55.37,-35.82 46.46,-26.56"/>
<polygon fill="#63b8ff" stroke="#63b8ff" points="48.72,-23.87 39.26,-19.09 43.68,-28.72 48.72,-23.87"/>
</g>
<!-- Node4 -->
<g id="node4" class="node">
<title>Node4</title>
<g id="a_node4"><a xlink:title=" ">
<polygon fill="#e0e0e0" stroke="#999999" points="142.5,-19 89.5,-19 89.5,0 142.5,0 142.5,-19"/>
<text text-anchor="middle" x="116" y="-7" font-family="Helvetica,sans-Serif" font-size="10.00">stdint.h</text>
</a>
</g>
</g>
<!-- Node2&#45;&gt;Node4 -->
<g id="edge3" class="edge">
<title>Node2&#45;&gt;Node4</title>
<path fill="none" stroke="#63b8ff" d="M87.61,-54.75C92.32,-47.42 99.17,-36.73 104.97,-27.7"/>
<polygon fill="#63b8ff" stroke="#63b8ff" points="108.04,-29.4 110.49,-19.09 102.14,-25.62 108.04,-29.4"/>
</g>
<!-- Node5 -->
<g id="node5" class="node">
<title>Node5</title>
<g id="a_node5"><a xlink:title=" ">
<polygon fill="#e0e0e0" stroke="#999999" points="201.5,-19 164.5,-19 164.5,0 201.5,0 201.5,-19"/>
<text text-anchor="middle" x="183" y="-7" font-family="Helvetica,sans-Serif" font-size="10.00">xc.h</text>
</a>
</g>
</g>
<!-- Node2&#45;&gt;Node5 -->
<g id="edge4" class="edge">
<title>Node2&#45;&gt;Node5</title>
<path fill="none" stroke="#63b8ff" d="M98.23,-54.98C114.18,-46.61 138.78,-33.7 157.38,-23.95"/>
<polygon fill="#63b8ff" stroke="#63b8ff" points="159.25,-26.92 166.48,-19.17 156,-20.72 159.25,-26.92"/>
</g>
<!-- Node6&#45;&gt;Node2 -->
<g id="edge9" class="edge">
<title>Node6&#45;&gt;Node2</title>
<path fill="none" stroke="#63b8ff" d="M134.04,-109.98C124.87,-102.15 111.06,-90.34 99.97,-80.86"/>
<polygon fill="#63b8ff" stroke="#63b8ff" points="102.02,-78.01 92.14,-74.17 97.47,-83.33 102.02,-78.01"/>
</g>
<!-- Node6&#45;&gt;Node3 -->
<g id="edge6" class="edge">
<title>Node6&#45;&gt;Node3</title>
<path fill="none" stroke="#63b8ff" d="M109.76,-114.67C84.04,-109.82 50.38,-98.84 33,-74 24.01,-61.15 24.39,-42.99 26.5,-29.37"/>
<polygon fill="#63b8ff" stroke="#63b8ff" points="30,-29.72 28.52,-19.23 23.14,-28.35 30,-29.72"/>
</g>
<!-- Node6&#45;&gt;Node4 -->
<g id="edge7" class="edge">
<title>Node6&#45;&gt;Node4</title>
<path fill="none" stroke="#63b8ff" d="M142.34,-109.81C139.93,-97.53 135.18,-74.41 130,-55 127.7,-46.39 124.79,-36.97 122.22,-29.01"/>
<polygon fill="#63b8ff" stroke="#63b8ff" points="125.48,-27.7 119.02,-19.3 118.83,-29.89 125.48,-27.7"/>
</g>
<!-- Node6&#45;&gt;Node5 -->
<g id="edge8" class="edge">
<title>Node6&#45;&gt;Node5</title>
<path fill="none" stroke="#63b8ff" d="M147.19,-109.66C153.57,-92.01 167.98,-52.09 176.45,-28.64"/>
<polygon fill="#63b8ff" stroke="#63b8ff" points="179.77,-29.75 179.87,-19.16 173.18,-27.38 179.77,-29.75"/>
</g>
</g>
</svg>
