<?xml version="1.0" encoding="UTF-8" standalone="no"?>
<!DOCTYPE svg PUBLIC "-//W3C//DTD SVG 1.1//EN"
 "http://www.w3.org/Graphics/SVG/1.1/DTD/svg11.dtd">
<!-- Generated by graphviz version 2.43.0 (0)
 -->
<!-- Title: init Pages: 1 -->
<svg width="274pt" height="138pt"
 viewBox="0.00 0.00 274.00 138.00" xmlns="http://www.w3.org/2000/svg" xmlns:xlink="http://www.w3.org/1999/xlink">
<g id="graph0" class="graph" transform="scale(1 1) rotate(0) translate(4 134)">
<title>init</title>
<!-- Node1 -->
<g id="node1" class="node">
<title>Node1</title>
<g id="a_node1"><a xlink:title=" ">
<polygon fill="#999999" stroke="#666666" points="32,-92 0,-92 0,-73 32,-73 32,-92"/>
<text text-anchor="middle" x="16" y="-80" font-family="Helvetica,sans-Serif" font-size="10.00">init</text>
</a>
</g>
</g>
<!-- Node2 -->
<g id="node2" class="node">
<title>Node2</title>
<g id="a_node2"><a xlink:href="common_8c.html#aa8c277fdab0cc5bc32555aa51957f23b" target="_top" xlink:title="アナログ機能を無効化する関数">
<polygon fill="white" stroke="#666666" points="137,-111 72,-111 72,-92 137,-92 137,-111"/>
<text text-anchor="middle" x="104.5" y="-99" font-family="Helvetica,sans-Serif" font-size="10.00">disAnalog</text>
</a>
</g>
</g>
<!-- Node1&#45;&gt;Node2 -->
<g id="edge1" class="edge">
<title>Node1&#45;&gt;Node2</title>
<path fill="none" stroke="#63b8ff" d="M32.07,-85.81C40.36,-87.63 51.09,-89.99 61.71,-92.32"/>
<polygon fill="#63b8ff" stroke="#63b8ff" points="61.26,-95.8 71.77,-94.53 62.76,-88.97 61.26,-95.8"/>
</g>
<!-- Node3 -->
<g id="node3" class="node">
<title>Node3</title>
<g id="a_node3"><a xlink:href="common_8c.html#a70f6100e4f948b633c942e5c6e4c209a" target="_top" xlink:title="アナログ機能を無効化する関数">
<polygon fill="white" stroke="#666666" points="141,-74 68,-74 68,-55 141,-55 141,-74"/>
<text text-anchor="middle" x="104.5" y="-62" font-family="Helvetica,sans-Serif" font-size="10.00">setInitState</text>
</a>
</g>
</g>
<!-- Node1&#45;&gt;Node3 -->
<g id="edge2" class="edge">
<title>Node1&#45;&gt;Node3</title>
<path fill="none" stroke="#63b8ff" d="M32.07,-79.36C39.32,-77.86 48.44,-75.96 57.72,-74.03"/>
<polygon fill="#63b8ff" stroke="#63b8ff" points="58.69,-77.4 67.77,-71.93 57.27,-70.55 58.69,-77.4"/>
</g>
<!-- Node4 -->
<g id="node4" class="node">
<title>Node4</title>
<g id="a_node4"><a xlink:href="PIC12F6XX_8c.html#a6933d56410a79bc99303c7f4f54521ca" target="_top" xlink:title="EEPROMからデータを読み込む関数">
<polygon fill="white" stroke="#666666" points="251,-130 192,-130 192,-111 251,-111 251,-130"/>
<text text-anchor="middle" x="221.5" y="-118" font-family="Helvetica,sans-Serif" font-size="10.00">eepRead</text>
</a>
</g>
</g>
<!-- Node3&#45;&gt;Node4 -->
<g id="edge3" class="edge">
<title>Node3&#45;&gt;Node4</title>
<path fill="none" stroke="#63b8ff" d="M123.37,-74.05C143.65,-84.89 174.3,-101.23 177,-102.5 180.13,-103.97 183.41,-105.45 186.7,-106.89"/>
<polygon fill="#63b8ff" stroke="#63b8ff" points="185.36,-110.12 195.93,-110.82 188.1,-103.68 185.36,-110.12"/>
</g>
<!-- Node5 -->
<g id="node5" class="node">
<title>Node5</title>
<g id="a_node5"><a xlink:href="PIC12F6XX_8c.html#a64719dac9a22c3c4752c799ffc69b25a" target="_top" xlink:title="EEPROMにデータを書き込む関数">
<polygon fill="white" stroke="#666666" points="252,-93 191,-93 191,-74 252,-74 252,-93"/>
<text text-anchor="middle" x="221.5" y="-81" font-family="Helvetica,sans-Serif" font-size="10.00">eepWrite</text>
</a>
</g>
</g>
<!-- Node3&#45;&gt;Node5 -->
<g id="edge4" class="edge">
<title>Node3&#45;&gt;Node5</title>
<path fill="none" stroke="#63b8ff" d="M141.26,-70.41C153.85,-72.49 168.07,-74.84 180.95,-76.97"/>
<polygon fill="#63b8ff" stroke="#63b8ff" points="180.51,-80.44 190.94,-78.62 181.65,-73.53 180.51,-80.44"/>
</g>
<!-- Node6 -->
<g id="node6" class="node">
<title>Node6</title>
<g id="a_node6"><a xlink:href="common_8c.html#ab1be8587a70ecef36ec9bc5afc406df8" target="_top" xlink:title="LEDを点滅させる関数">
<polygon fill="white" stroke="#666666" points="251,-56 192,-56 192,-37 251,-37 251,-56"/>
<text text-anchor="middle" x="221.5" y="-44" font-family="Helvetica,sans-Serif" font-size="10.00">flashLED</text>
</a>
</g>
</g>
<!-- Node3&#45;&gt;Node6 -->
<g id="edge5" class="edge">
<title>Node3&#45;&gt;Node6</title>
<path fill="none" stroke="#63b8ff" d="M141.26,-58.9C154.05,-56.9 168.54,-54.63 181.59,-52.59"/>
<polygon fill="#63b8ff" stroke="#63b8ff" points="182.35,-56.01 191.69,-51.01 181.27,-49.1 182.35,-56.01"/>
</g>
<!-- Node7 -->
<g id="node7" class="node">
<title>Node7</title>
<g id="a_node7"><a xlink:href="header_8h.html#a896a4f8d3daad77204547524b2c803bc" target="_top" xlink:title=" ">
<polygon fill="white" stroke="#666666" points="266,-19 177,-19 177,0 266,0 266,-19"/>
<text text-anchor="middle" x="221.5" y="-7" font-family="Helvetica,sans-Serif" font-size="10.00">waitChattering</text>
</a>
</g>
</g>
<!-- Node3&#45;&gt;Node7 -->
<g id="edge6" class="edge">
<title>Node3&#45;&gt;Node7</title>
<path fill="none" stroke="#63b8ff" d="M123.88,-54.9C138.24,-47.48 158.76,-37.07 177,-28.5 180.67,-26.78 184.54,-25.01 188.39,-23.29"/>
<polygon fill="#63b8ff" stroke="#63b8ff" points="190.08,-26.37 197.82,-19.13 187.26,-19.96 190.08,-26.37"/>
</g>
</g>
</svg>
