<?xml version="1.0" encoding="UTF-8" standalone="no"?>
<!DOCTYPE svg PUBLIC "-//W3C//DTD SVG 1.1//EN"
 "http://www.w3.org/Graphics/SVG/1.1/DTD/svg11.dtd">
<!-- Generated by graphviz version 2.43.0 (0)
 -->
<!-- Title: PIC12F6XX.h Pages: 1 -->
<svg width="240pt" height="137pt"
 viewBox="0.00 0.00 240.00 137.00" xmlns="http://www.w3.org/2000/svg" xmlns:xlink="http://www.w3.org/1999/xlink">
<g id="graph0" class="graph" transform="scale(1 1) rotate(0) translate(4 133)">
<title>PIC12F6XX.h</title>
<!-- Node1 -->
<g id="node1" class="node">
<title>Node1</title>
<g id="a_node1"><a xlink:title=" ">
<polygon fill="#999999" stroke="#666666" points="123.5,-129 44.5,-129 44.5,-110 123.5,-110 123.5,-129"/>
<text text-anchor="middle" x="84" y="-117" font-family="Helvetica,sans-Serif" font-size="10.00">PIC12F6XX.h</text>
</a>
</g>
</g>
<!-- Node2 -->
<g id="node2" class="node">
<title>Node2</title>
<g id="a_node2"><a xlink:href="PIC12F6XX_8c.html" target="_top" xlink:title="PIC12F629, PIC12F675用の関数を定義するファイル">
<polygon fill="white" stroke="#666666" points="78,-19 0,-19 0,0 78,0 78,-19"/>
<text text-anchor="middle" x="39" y="-7" font-family="Helvetica,sans-Serif" font-size="10.00">PIC12F6XX.c</text>
</a>
</g>
</g>
<!-- Node1&#45;&gt;Node2 -->
<g id="edge1" class="edge">
<title>Node1&#45;&gt;Node2</title>
<path fill="none" stroke="#63b8ff" d="M76.34,-100.12C66.53,-76.56 49.9,-36.66 42.61,-19.16"/>
<polygon fill="#63b8ff" stroke="#63b8ff" points="73.24,-101.78 80.32,-109.66 79.7,-99.08 73.24,-101.78"/>
</g>
<!-- Node3 -->
<g id="node3" class="node">
<title>Node3</title>
<g id="a_node3"><a xlink:href="header_8h.html" target="_top" xlink:title=" ">
<polygon fill="white" stroke="#666666" points="150.5,-74 91.5,-74 91.5,-55 150.5,-55 150.5,-74"/>
<text text-anchor="middle" x="121" y="-62" font-family="Helvetica,sans-Serif" font-size="10.00">header.h</text>
</a>
</g>
</g>
<!-- Node1&#45;&gt;Node3 -->
<g id="edge2" class="edge">
<title>Node1&#45;&gt;Node3</title>
<path fill="none" stroke="#63b8ff" d="M95.95,-101.39C102.31,-92.27 109.87,-81.45 115,-74.09"/>
<polygon fill="#63b8ff" stroke="#63b8ff" points="92.96,-99.55 90.11,-109.75 98.7,-103.55 92.96,-99.55"/>
</g>
<!-- Node3&#45;&gt;Node2 -->
<g id="edge3" class="edge">
<title>Node3&#45;&gt;Node2</title>
<path fill="none" stroke="#63b8ff" d="M99.22,-49.42C84.34,-39.81 65.09,-27.37 52.41,-19.17"/>
<polygon fill="#63b8ff" stroke="#63b8ff" points="97.53,-52.5 107.83,-54.98 101.33,-46.62 97.53,-52.5"/>
</g>
<!-- Node4 -->
<g id="node4" class="node">
<title>Node4</title>
<g id="a_node4"><a xlink:href="common_8c.html" target="_top" xlink:title="PICマイコンによらず共通な関数を定義するファイル">
<polygon fill="white" stroke="#666666" points="164,-19 96,-19 96,0 164,0 164,-19"/>
<text text-anchor="middle" x="130" y="-7" font-family="Helvetica,sans-Serif" font-size="10.00">common.c</text>
</a>
</g>
</g>
<!-- Node3&#45;&gt;Node4 -->
<g id="edge4" class="edge">
<title>Node3&#45;&gt;Node4</title>
<path fill="none" stroke="#63b8ff" d="M124.2,-44.66C125.68,-35.93 127.37,-25.99 128.54,-19.09"/>
<polygon fill="#63b8ff" stroke="#63b8ff" points="120.71,-44.3 122.49,-54.75 127.61,-45.48 120.71,-44.3"/>
</g>
<!-- Node5 -->
<g id="node5" class="node">
<title>Node5</title>
<g id="a_node5"><a xlink:href="main_8c.html" target="_top" xlink:title="Program for Trail True Bypass with PIC microcontroller.">
<polygon fill="white" stroke="#666666" points="232,-19 182,-19 182,0 232,0 232,-19"/>
<text text-anchor="middle" x="207" y="-7" font-family="Helvetica,sans-Serif" font-size="10.00">main.c</text>
</a>
</g>
</g>
<!-- Node3&#45;&gt;Node5 -->
<g id="edge5" class="edge">
<title>Node3&#45;&gt;Node5</title>
<path fill="none" stroke="#63b8ff" d="M143.4,-49.7C159.07,-40.04 179.51,-27.44 192.93,-19.17"/>
<polygon fill="#63b8ff" stroke="#63b8ff" points="141.49,-46.76 134.82,-54.98 145.17,-52.72 141.49,-46.76"/>
</g>
</g>
</svg>
