<?xml version="1.0" encoding="UTF-8" standalone="no"?>
<!DOCTYPE svg PUBLIC "-//W3C//DTD SVG 1.1//EN"
 "http://www.w3.org/Graphics/SVG/1.1/DTD/svg11.dtd">
<!-- Generated by graphviz version 2.43.0 (0)
 -->
<!-- Title: init Pages: 1 -->
<svg width="246pt" height="101pt"
 viewBox="0.00 0.00 246.00 101.00" xmlns="http://www.w3.org/2000/svg" xmlns:xlink="http://www.w3.org/1999/xlink">
<g id="graph0" class="graph" transform="scale(1 1) rotate(0) translate(4 97)">
<title>init</title>
<!-- Node1 -->
<g id="node1" class="node">
<title>Node1</title>
<g id="a_node1"><a xlink:title=" ">
<polygon fill="#999999" stroke="#666666" points="32,-74 0,-74 0,-55 32,-55 32,-74"/>
<text text-anchor="middle" x="16" y="-62" font-family="Helvetica,sans-Serif" font-size="10.00">init</text>
</a>
</g>
</g>
<!-- Node2 -->
<g id="node2" class="node">
<title>Node2</title>
<g id="a_node2"><a xlink:href="common_8c.html#aa8c277fdab0cc5bc32555aa51957f23b" target="_top" xlink:title="アナログ機能を無効化する関数">
<polygon fill="white" stroke="#666666" points="137,-93 72,-93 72,-74 137,-74 137,-93"/>
<text text-anchor="middle" x="104.5" y="-81" font-family="Helvetica,sans-Serif" font-size="10.00">disAnalog</text>
</a>
</g>
</g>
<!-- Node1&#45;&gt;Node2 -->
<g id="edge1" class="edge">
<title>Node1&#45;&gt;Node2</title>
<path fill="none" stroke="#63b8ff" d="M32.07,-67.81C40.36,-69.63 51.09,-71.99 61.71,-74.32"/>
<polygon fill="#63b8ff" stroke="#63b8ff" points="61.26,-77.8 71.77,-76.53 62.76,-70.97 61.26,-77.8"/>
</g>
<!-- Node3 -->
<g id="node3" class="node">
<title>Node3</title>
<g id="a_node3"><a xlink:href="common_8c.html#a70f6100e4f948b633c942e5c6e4c209a" target="_top" xlink:title="アナログ機能を無効化する関数">
<polygon fill="white" stroke="#666666" points="141,-56 68,-56 68,-37 141,-37 141,-56"/>
<text text-anchor="middle" x="104.5" y="-44" font-family="Helvetica,sans-Serif" font-size="10.00">setInitState</text>
</a>
</g>
</g>
<!-- Node1&#45;&gt;Node3 -->
<g id="edge2" class="edge">
<title>Node1&#45;&gt;Node3</title>
<path fill="none" stroke="#63b8ff" d="M32.07,-61.36C39.32,-59.86 48.44,-57.96 57.72,-56.03"/>
<polygon fill="#63b8ff" stroke="#63b8ff" points="58.69,-59.4 67.77,-53.93 57.27,-52.55 58.69,-59.4"/>
</g>
<!-- Node4 -->
<g id="node4" class="node">
<title>Node4</title>
<g id="a_node4"><a xlink:href="PIC12F6XX_8c.html#a6933d56410a79bc99303c7f4f54521ca" target="_top" xlink:title="EEPROMからデータを読み込む関数">
<polygon fill="white" stroke="#666666" points="237,-93 178,-93 178,-74 237,-74 237,-93"/>
<text text-anchor="middle" x="207.5" y="-81" font-family="Helvetica,sans-Serif" font-size="10.00">eepRead</text>
</a>
</g>
</g>
<!-- Node3&#45;&gt;Node4 -->
<g id="edge3" class="edge">
<title>Node3&#45;&gt;Node4</title>
<path fill="none" stroke="#63b8ff" d="M131.51,-56.03C143.43,-60.4 157.76,-65.64 170.68,-70.38"/>
<polygon fill="#63b8ff" stroke="#63b8ff" points="169.63,-73.72 180.23,-73.88 172.04,-67.15 169.63,-73.72"/>
</g>
<!-- Node5 -->
<g id="node5" class="node">
<title>Node5</title>
<g id="a_node5"><a xlink:href="PIC12F6XX_8c.html#a64719dac9a22c3c4752c799ffc69b25a" target="_top" xlink:title="EEPROMにデータを書き込む関数">
<polygon fill="white" stroke="#666666" points="238,-56 177,-56 177,-37 238,-37 238,-56"/>
<text text-anchor="middle" x="207.5" y="-44" font-family="Helvetica,sans-Serif" font-size="10.00">eepWrite</text>
</a>
</g>
</g>
<!-- Node3&#45;&gt;Node5 -->
<g id="edge4" class="edge">
<title>Node3&#45;&gt;Node5</title>
<path fill="none" stroke="#63b8ff" d="M141.11,-46.5C149.43,-46.5 158.34,-46.5 166.82,-46.5"/>
<polygon fill="#63b8ff" stroke="#63b8ff" points="166.88,-50 176.88,-46.5 166.88,-43 166.88,-50"/>
</g>
<!-- Node6 -->
<g id="node6" class="node">
<title>Node6</title>
<g id="a_node6"><a xlink:href="common_8c.html#ab1be8587a70ecef36ec9bc5afc406df8" target="_top" xlink:title="LEDを点滅させる関数">
<polygon fill="white" stroke="#666666" points="237,-19 178,-19 178,0 237,0 237,-19"/>
<text text-anchor="middle" x="207.5" y="-7" font-family="Helvetica,sans-Serif" font-size="10.00">flashLED</text>
</a>
</g>
</g>
<!-- Node3&#45;&gt;Node6 -->
<g id="edge5" class="edge">
<title>Node3&#45;&gt;Node6</title>
<path fill="none" stroke="#63b8ff" d="M131.51,-36.97C143.43,-32.6 157.76,-27.36 170.68,-22.62"/>
<polygon fill="#63b8ff" stroke="#63b8ff" points="172.04,-25.85 180.23,-19.12 169.63,-19.28 172.04,-25.85"/>
</g>
</g>
</svg>
