<?xml version="1.0" encoding="UTF-8" standalone="no"?>
<!DOCTYPE svg PUBLIC "-//W3C//DTD SVG 1.1//EN"
 "http://www.w3.org/Graphics/SVG/1.1/DTD/svg11.dtd">
<!-- Generated by graphviz version 2.43.0 (0)
 -->
<!-- Title: __interrupt Pages: 1 -->
<svg width="300pt" height="27pt"
 viewBox="0.00 0.00 300.00 27.00" xmlns="http://www.w3.org/2000/svg" xmlns:xlink="http://www.w3.org/1999/xlink">
<g id="graph0" class="graph" transform="scale(1 1) rotate(0) translate(4 23)">
<title>__interrupt</title>
<!-- Node1 -->
<g id="node1" class="node">
<title>Node1</title>
<g id="a_node1"><a xlink:title=" ">
<polygon fill="#999999" stroke="#666666" points="69,-19 0,-19 0,0 69,0 69,-19"/>
<text text-anchor="middle" x="34.5" y="-7" font-family="Helvetica,sans-Serif" font-size="10.00">__interrupt</text>
</a>
</g>
</g>
<!-- Node2 -->
<g id="node2" class="node">
<title>Node2</title>
<g id="a_node2"><a xlink:href="common_8c.html#a450f740567f3511eb4075639ee9126db" target="_top" xlink:title="割り込み中に実行される関数">
<polygon fill="white" stroke="#666666" points="167,-19 105,-19 105,0 167,0 167,-19"/>
<text text-anchor="middle" x="136" y="-7" font-family="Helvetica,sans-Serif" font-size="10.00">insideISR</text>
</a>
</g>
</g>
<!-- Node1&#45;&gt;Node2 -->
<g id="edge1" class="edge">
<title>Node1&#45;&gt;Node2</title>
<path fill="none" stroke="#63b8ff" d="M69.19,-9.5C77.36,-9.5 86.19,-9.5 94.64,-9.5"/>
<polygon fill="#63b8ff" stroke="#63b8ff" points="94.69,-13 104.69,-9.5 94.69,-6 94.69,-13"/>
</g>
<!-- Node3 -->
<g id="node3" class="node">
<title>Node3</title>
<g id="a_node3"><a xlink:href="header_8h.html#a896a4f8d3daad77204547524b2c803bc" target="_top" xlink:title=" ">
<polygon fill="white" stroke="#666666" points="292,-19 203,-19 203,0 292,0 292,-19"/>
<text text-anchor="middle" x="247.5" y="-7" font-family="Helvetica,sans-Serif" font-size="10.00">waitChattering</text>
</a>
</g>
</g>
<!-- Node2&#45;&gt;Node3 -->
<g id="edge2" class="edge">
<title>Node2&#45;&gt;Node3</title>
<path fill="none" stroke="#63b8ff" d="M167.21,-9.5C175.13,-9.5 183.91,-9.5 192.66,-9.5"/>
<polygon fill="#63b8ff" stroke="#63b8ff" points="192.86,-13 202.86,-9.5 192.86,-6 192.86,-13"/>
</g>
</g>
</svg>
